<?xml version="1.0" encoding="UTF-8" standalone="no"?>
<svg
   xmlns:serif="http://www.serif.com/"
   xmlns:dc="http://purl.org/dc/elements/1.1/"
   xmlns:cc="http://creativecommons.org/ns#"
   xmlns:rdf="http://www.w3.org/1999/02/22-rdf-syntax-ns#"
   xmlns:svg="http://www.w3.org/2000/svg"
   xmlns="http://www.w3.org/2000/svg"
   xmlns:sodipodi="http://sodipodi.sourceforge.net/DTD/sodipodi-0.dtd"
   xmlns:inkscape="http://www.inkscape.org/namespaces/inkscape"
   width="100%"
   height="100%"
   viewBox="0 0 1096 1096"
   version="1.1"
   xml:space="preserve"
   style="fill-rule:evenodd;clip-rule:evenodd;stroke-linejoin:round;stroke-miterlimit:2;"
   id="svg520"
   sodipodi:docname="smp-ico.svg"
   inkscape:version="1.0.2-2 (e86c870879, 2021-01-15)"><metadata
   id="metadata526"><rdf:RDF><cc:Work
       rdf:about=""><dc:format>image/svg+xml</dc:format><dc:type
         rdf:resource="http://purl.org/dc/dcmitype/StillImage" /></cc:Work></rdf:RDF></metadata><defs
   id="defs524">
        
    
            
            
            
            
            
            
            
        </defs><sodipodi:namedview
   pagecolor="#ffffff"
   bordercolor="#666666"
   borderopacity="1"
   objecttolerance="10"
   gridtolerance="10"
   guidetolerance="10"
   inkscape:pageopacity="0"
   inkscape:pageshadow="2"
   inkscape:window-width="1920"
   inkscape:window-height="1009"
   id="namedview522"
   showgrid="false"
   inkscape:zoom="0.38412409"
   inkscape:cx="-47.604146"
   inkscape:cy="495.80181"
   inkscape:window-x="-8"
   inkscape:window-y="-8"
   inkscape:window-maximized="1"
   inkscape:current-layer="g244"
   inkscape:document-rotation="0" />
    <g
   transform="matrix(1.0000007,0,0,0.99999608,-1088.3722,35.631785)"
   id="g507">
                <g
   transform="matrix(2.55647,0,0,2.55647,-308.111,279.394)"
   id="g32">
                    <circle
   cx="760.46802"
   cy="90.987"
   r="188.394"
   style="fill:#ffffff"
   id="circle30" />
                </g>
                <g
   transform="matrix(2.26059,0,0,2.26059,-305.157,168.043)"
   id="g36">
                    <path
   d="m 858.687,-60.898 c -117.581,0 -213.043,95.461 -213.043,213.043 0,117.581 95.462,213.043 213.043,213.043 117.582,0 213.043,-95.462 213.043,-213.043 0,-117.582 -95.461,-213.043 -213.043,-213.043 z m 0,39.124 c 95.988,0 173.923,77.931 173.923,173.919 0,95.988 -77.935,173.919 -173.923,173.919 -95.988,0 -173.919,-77.931 -173.919,-173.919 0,-95.988 77.931,-173.919 173.919,-173.919 z"
   style="fill:#ffffff;stroke:#000000;stroke-width:1.54px"
   id="path34" />
                </g>
                <g
   transform="matrix(-2.25669,-0.132655,0.132655,-2.25669,3553.59,969.234)"
   id="g174">
                    <g
   transform="matrix(11.0244,23.1574,-23.1574,11.0244,1022.24,65.2166)"
   id="g40">
                        <path
   d="m 0.036,-0.233 0.141,-0.014 c 0.008,0.048 0.025,0.082 0.051,0.104 0.026,0.023 0.061,0.034 0.105,0.034 0.047,0 0.082,-0.01 0.105,-0.03 0.024,-0.02 0.036,-0.043 0.036,-0.069 0,-0.017 -0.005,-0.031 -0.015,-0.043 C 0.449,-0.263 0.431,-0.273 0.407,-0.282 0.39,-0.288 0.351,-0.299 0.291,-0.313 0.214,-0.333 0.159,-0.356 0.128,-0.384 0.084,-0.424 0.062,-0.472 0.062,-0.528 c 0,-0.037 0.01,-0.071 0.031,-0.103 0.021,-0.031 0.05,-0.056 0.089,-0.072 0.039,-0.017 0.086,-0.025 0.141,-0.025 0.09,0 0.158,0.02 0.203,0.059 0.046,0.039 0.069,0.092 0.072,0.158 L 0.453,-0.505 C 0.447,-0.542 0.434,-0.568 0.413,-0.584 0.393,-0.6 0.362,-0.608 0.322,-0.608 0.28,-0.608 0.247,-0.6 0.223,-0.583 0.208,-0.571 0.2,-0.557 0.2,-0.538 c 0,0.017 0.007,0.031 0.022,0.043 0.018,0.016 0.062,0.032 0.132,0.048 0.071,0.017 0.123,0.034 0.156,0.052 0.034,0.017 0.061,0.042 0.08,0.072 0.019,0.031 0.028,0.069 0.028,0.115 0,0.041 -0.011,0.079 -0.034,0.115 -0.023,0.036 -0.055,0.062 -0.097,0.08 C 0.446,0.004 0.394,0.013 0.332,0.013 0.241,0.013 0.172,-0.008 0.123,-0.05 0.075,-0.092 0.046,-0.153 0.036,-0.233 Z"
   style="fill-rule:nonzero"
   id="path38" />
                    </g>
                    <g
   transform="matrix(8.3821,24.2393,-24.2393,8.3821,1030.71,83.365)"
   id="g44">
                        <path
   d="m 0.073,0 v -0.716 h 0.531 v 0.121 H 0.217 v 0.159 h 0.36 v 0.121 h -0.36 v 0.194 h 0.4 V 0 Z"
   style="fill-rule:nonzero"
   id="path42" />
                    </g>
                    <g
   transform="matrix(5.51535,25.0476,-25.0476,5.51535,1037.19,102.278)"
   id="g48">
                        <path
   d="m 0.075,0 v -0.716 h 0.144 v 0.318 L 0.511,-0.716 H 0.706 L 0.436,-0.437 0.72,0 H 0.533 L 0.336,-0.336 0.219,-0.216 V 0 Z"
   style="fill-rule:nonzero"
   id="path46" />
                    </g>
                    <g
   transform="matrix(2.60472,25.515,-25.515,2.60472,1041.72,123.191)"
   id="g52">
                        <path
   d="m 0.043,-0.354 c 0,-0.072 0.011,-0.134 0.033,-0.183 0.016,-0.037 0.039,-0.069 0.067,-0.098 0.028,-0.029 0.059,-0.051 0.092,-0.065 0.045,-0.019 0.096,-0.028 0.155,-0.028 0.105,0 0.19,0.033 0.253,0.098 0.063,0.066 0.095,0.157 0.095,0.273 0,0.116 -0.032,0.206 -0.094,0.271 C 0.581,-0.02 0.497,0.012 0.392,0.012 0.285,0.012 0.201,-0.02 0.138,-0.085 0.075,-0.15 0.043,-0.24 0.043,-0.354 Z m 0.149,-0.004 c 0,0.081 0.019,0.142 0.057,0.184 0.037,0.042 0.084,0.063 0.142,0.063 0.058,0 0.105,-0.021 0.142,-0.063 0.037,-0.041 0.055,-0.103 0.055,-0.186 0,-0.082 -0.018,-0.144 -0.054,-0.184 -0.036,-0.04 -0.083,-0.06 -0.143,-0.06 -0.059,0 -0.107,0.02 -0.144,0.061 -0.036,0.041 -0.055,0.102 -0.055,0.185 z"
   style="fill-rule:nonzero"
   id="path50" />
                    </g>
                    <g
   transform="matrix(-0.30499,25.6458,-25.6458,-0.30499,1043.79,145.96)"
   id="g56">
                        <path
   d="m 0.077,0 v -0.71 h 0.144 v 0.589 h 0.36 V 0 Z"
   style="fill-rule:nonzero"
   id="path54" />
                    </g>
                    <g
   transform="matrix(-2.96703,25.4754,-25.4754,-2.96703,1043.52,164.6)"
   id="g60">
                        <path
   d="M 0.718,0 H 0.561 L 0.499,-0.163 H 0.212 L 0.153,0 H 0 L 0.279,-0.716 H 0.432 Z M 0.452,-0.283 0.354,-0.549 0.257,-0.283 Z"
   style="fill-rule:nonzero"
   id="path58" />
                    </g>
                    <g
   transform="matrix(-5.90134,24.9595,-24.9595,-5.90134,1040.87,185.85)"
   id="g64">
                        <path
   d="m 0.073,0 v -0.716 h 0.145 v 0.282 H 0.501 V -0.716 H 0.646 V 0 H 0.501 V -0.313 H 0.218 V 0 Z"
   style="fill-rule:nonzero"
   id="path62" />
                    </g>
                    <g
   transform="matrix(-10.3035,23.487,-23.487,-10.3035,1032.5,216.541)"
   id="g68">
                        <path
   d="m 0.071,0 v -0.716 h 0.216 l 0.13,0.488 0.128,-0.488 H 0.762 V 0 H 0.628 V -0.563 L 0.486,0 H 0.347 L 0.205,-0.563 V 0 Z"
   style="fill-rule:nonzero"
   id="path66" />
                    </g>
                    <g
   transform="matrix(-13.0654,22.0703,-22.0703,-13.0654,1022.53,238.575)"
   id="g72">
                        <path
   d="m 0.073,0 v -0.716 h 0.531 v 0.121 H 0.217 v 0.159 h 0.36 v 0.121 h -0.36 v 0.194 h 0.4 V 0 Z"
   style="fill-rule:nonzero"
   id="path70" />
                    </g>
                    <g
   transform="matrix(-15.4052,20.5057,-20.5057,-15.4052,1012.22,255.769)"
   id="g76">
                        <path
   d="m 0.074,0 v -0.716 h 0.141 l 0.293,0.478 V -0.716 H 0.642 V 0 H 0.497 L 0.208,-0.467 V 0 Z"
   style="fill-rule:nonzero"
   id="path74" />
                    </g>
                    <g
   transform="matrix(-17.6223,18.6348,-18.6348,-17.6223,999.195,272.785)"
   id="g80">
                        <path
   d="m 0.073,0 v -0.716 h 0.531 v 0.121 H 0.217 v 0.159 h 0.36 v 0.121 h -0.36 v 0.194 h 0.4 V 0 Z"
   style="fill-rule:nonzero"
   id="path78" />
                    </g>
                    <g
   transform="matrix(-19.5465,16.6053,-16.6053,-19.5465,985.365,287.252)"
   id="g84">
                        <path
   d="m 0.074,0 v -0.716 h 0.141 l 0.293,0.478 V -0.716 H 0.642 V 0 H 0.497 L 0.208,-0.467 V 0 Z"
   style="fill-rule:nonzero"
   id="path82" />
                    </g>
                    <g
   transform="matrix(-21.373,14.1772,-14.1772,-21.373,968.939,301.018)"
   id="g88">
                        <path
   d="m 0.406,-0.263 v -0.121 h 0.311 v 0.285 C 0.687,-0.069 0.643,-0.044 0.586,-0.021 0.528,0.001 0.47,0.012 0.411,0.012 0.336,0.012 0.271,-0.003 0.215,-0.035 0.16,-0.066 0.118,-0.111 0.09,-0.17 0.062,-0.228 0.048,-0.292 0.048,-0.36 c 0,-0.075 0.015,-0.141 0.047,-0.199 0.031,-0.058 0.077,-0.102 0.137,-0.133 0.046,-0.024 0.103,-0.036 0.171,-0.036 0.089,0 0.159,0.019 0.209,0.056 0.05,0.037 0.082,0.089 0.096,0.154 L 0.564,-0.491 C 0.554,-0.526 0.535,-0.554 0.508,-0.574 0.48,-0.594 0.445,-0.604 0.403,-0.604 c -0.063,0 -0.113,0.02 -0.15,0.06 -0.038,0.04 -0.056,0.099 -0.056,0.178 0,0.085 0.019,0.148 0.056,0.191 0.038,0.042 0.088,0.064 0.149,0.064 0.03,0 0.06,-0.006 0.091,-0.018 0.03,-0.012 0.056,-0.026 0.078,-0.043 v -0.091 z"
   style="fill-rule:nonzero"
   id="path86" />
                    </g>
                    <g
   transform="matrix(-22.9129,11.5239,-11.5239,-22.9129,949.857,313.409)"
   id="g92">
                        <path
   d="M 0.718,0 H 0.561 L 0.499,-0.163 H 0.212 L 0.153,0 H 0 L 0.279,-0.716 H 0.432 Z M 0.452,-0.283 0.354,-0.549 0.257,-0.283 Z"
   style="fill-rule:nonzero"
   id="path90" />
                    </g>
                    <g
   transform="matrix(-24.0953,8.7875,-8.7875,-24.0953,930.665,322.87)"
   id="g96">
                        <path
   d="m 0.073,0 v -0.716 h 0.145 v 0.282 H 0.501 V -0.716 H 0.646 V 0 H 0.501 V -0.313 H 0.218 V 0 Z"
   style="fill-rule:nonzero"
   id="path94" />
                    </g>
                    <g
   transform="matrix(-25.2444,4.52979,-4.52979,-25.2444,900.292,332.679)"
   id="g100">
                        <path
   d="m 0.073,0 v -0.716 h 0.232 c 0.088,0 0.145,0.004 0.172,0.011 0.041,0.011 0.075,0.034 0.103,0.07 0.027,0.036 0.041,0.082 0.041,0.139 0,0.044 -0.008,0.081 -0.024,0.111 -0.016,0.03 -0.036,0.054 -0.061,0.071 -0.024,0.017 -0.049,0.028 -0.075,0.034 -0.034,0.007 -0.084,0.01 -0.149,0.01 H 0.217 V 0 Z m 0.144,-0.595 v 0.203 h 0.079 c 0.057,0 0.095,-0.003 0.115,-0.011 C 0.43,-0.41 0.445,-0.422 0.456,-0.438 0.467,-0.454 0.472,-0.472 0.472,-0.494 0.472,-0.52 0.465,-0.541 0.449,-0.558 0.434,-0.575 0.415,-0.586 0.391,-0.59 0.374,-0.593 0.339,-0.595 0.287,-0.595 Z"
   style="fill-rule:nonzero"
   id="path98" />
                    </g>
                    <g
   transform="matrix(-25.5857,1.78151,-1.78151,-25.5857,880.536,336.096)"
   id="g104">
                        <path
   d="m 0.073,0 v -0.716 h 0.531 v 0.121 H 0.217 v 0.159 h 0.36 v 0.121 h -0.36 v 0.194 h 0.4 V 0 Z"
   style="fill-rule:nonzero"
   id="path102" />
                    </g>
                    <g
   transform="matrix(-25.6231,-1.12268,1.12268,-25.6231,860.582,337.426)"
   id="g108">
                        <path
   d="m 0.073,0 v -0.716 h 0.304 c 0.077,0 0.133,0.007 0.167,0.019 0.035,0.013 0.063,0.036 0.083,0.069 0.021,0.033 0.032,0.071 0.032,0.113 0,0.054 -0.016,0.098 -0.048,0.133 -0.031,0.035 -0.078,0.057 -0.141,0.066 0.031,0.018 0.057,0.038 0.077,0.06 0.02,0.022 0.048,0.061 0.082,0.116 L 0.717,0 H 0.544 L 0.439,-0.156 C 0.402,-0.211 0.377,-0.247 0.363,-0.261 0.35,-0.275 0.335,-0.285 0.32,-0.291 0.305,-0.296 0.28,-0.299 0.247,-0.299 H 0.218 V 0 Z m 0.145,-0.413 h 0.107 c 0.069,0 0.112,-0.003 0.13,-0.009 0.017,-0.006 0.03,-0.016 0.04,-0.03 C 0.505,-0.466 0.51,-0.484 0.51,-0.506 0.51,-0.53 0.503,-0.549 0.49,-0.564 0.478,-0.579 0.459,-0.588 0.436,-0.592 0.424,-0.594 0.389,-0.595 0.331,-0.595 H 0.218 Z"
   style="fill-rule:nonzero"
   id="path106" />
                    </g>
                    <g
   transform="matrix(-25.37,-3.76364,3.76364,-25.37,839.105,336.304)"
   id="g112">
                        <path
   d="M 0.234,0 V -0.595 H 0.021 V -0.716 H 0.59 v 0.121 H 0.378 V 0 Z"
   style="fill-rule:nonzero"
   id="path110" />
                    </g>
                    <g
   transform="matrix(-24.8766,-6.24166,6.24166,-24.8766,822.511,333.857)"
   id="g116">
                        <path
   d="M 0.718,0 H 0.561 L 0.499,-0.163 H 0.212 L 0.153,0 H 0 L 0.279,-0.716 H 0.432 Z M 0.452,-0.283 0.354,-0.549 0.257,-0.283 Z"
   style="fill-rule:nonzero"
   id="path114" />
                    </g>
                    <g
   transform="matrix(-23.9111,-9.27698,9.27698,-23.9111,801.823,328.573)"
   id="g120">
                        <path
   d="m 0.071,0 v -0.716 h 0.216 l 0.13,0.488 0.128,-0.488 H 0.762 V 0 H 0.628 V -0.563 L 0.486,0 H 0.347 L 0.205,-0.563 V 0 Z"
   style="fill-rule:nonzero"
   id="path118" />
                    </g>
                    <g
   transform="matrix(-22.5896,-12.1453,12.1453,-22.5896,779.387,319.584)"
   id="g124">
                        <path
   d="M 0.718,0 H 0.561 L 0.499,-0.163 H 0.212 L 0.153,0 H 0 L 0.279,-0.716 H 0.432 Z M 0.452,-0.283 0.354,-0.549 0.257,-0.283 Z"
   style="fill-rule:nonzero"
   id="path122" />
                    </g>
                    <g
   transform="matrix(-20.697,-15.1471,15.1471,-20.697,752.5,303.678)"
   id="g128">
                        <rect
   x="0.068000004"
   y="-0.71600002"
   width="0.145"
   height="0.71600002"
   style="fill-rule:nonzero"
   id="rect126" />
                    </g>
                    <g
   transform="matrix(-19.4035,-16.7722,16.7722,-19.4035,744.145,297.647)"
   id="g132">
                        <path
   d="m 0.036,-0.233 0.141,-0.014 c 0.008,0.048 0.025,0.082 0.051,0.104 0.026,0.023 0.061,0.034 0.105,0.034 0.047,0 0.082,-0.01 0.105,-0.03 0.024,-0.02 0.036,-0.043 0.036,-0.069 0,-0.017 -0.005,-0.031 -0.015,-0.043 C 0.449,-0.263 0.431,-0.273 0.407,-0.282 0.39,-0.288 0.351,-0.299 0.291,-0.313 0.214,-0.333 0.159,-0.356 0.128,-0.384 0.084,-0.424 0.062,-0.472 0.062,-0.528 c 0,-0.037 0.01,-0.071 0.031,-0.103 0.021,-0.031 0.05,-0.056 0.089,-0.072 0.039,-0.017 0.086,-0.025 0.141,-0.025 0.09,0 0.158,0.02 0.203,0.059 0.046,0.039 0.069,0.092 0.072,0.158 L 0.453,-0.505 C 0.447,-0.542 0.434,-0.568 0.413,-0.584 0.393,-0.6 0.362,-0.608 0.322,-0.608 0.28,-0.608 0.247,-0.6 0.223,-0.583 0.208,-0.571 0.2,-0.557 0.2,-0.538 c 0,0.017 0.007,0.031 0.022,0.043 0.018,0.016 0.062,0.032 0.132,0.048 0.071,0.017 0.123,0.034 0.156,0.052 0.034,0.017 0.061,0.042 0.08,0.072 0.019,0.031 0.028,0.069 0.028,0.115 0,0.041 -0.011,0.079 -0.034,0.115 -0.023,0.036 -0.055,0.062 -0.097,0.08 C 0.446,0.004 0.394,0.013 0.332,0.013 0.241,0.013 0.172,-0.008 0.123,-0.05 0.075,-0.092 0.046,-0.153 0.036,-0.233 Z"
   style="fill-rule:nonzero"
   id="path130" />
                    </g>
                    <g
   transform="matrix(-17.4901,-18.759,18.759,-17.4901,729.103,284.417)"
   id="g136">
                        <path
   d="m 0.077,0 v -0.71 h 0.144 v 0.589 h 0.36 V 0 Z"
   style="fill-rule:nonzero"
   id="path134" />
                    </g>
                    <g
   transform="matrix(-15.4435,-20.4768,20.4768,-15.4435,716.427,270.745)"
   id="g140">
                        <path
   d="M 0.718,0 H 0.561 L 0.499,-0.163 H 0.212 L 0.153,0 H 0 L 0.279,-0.716 H 0.432 Z M 0.452,-0.283 0.354,-0.549 0.257,-0.283 Z"
   style="fill-rule:nonzero"
   id="path138" />
                    </g>
                    <g
   transform="matrix(-12.8147,-22.2168,22.2168,-12.8147,703.634,253.634)"
   id="g144">
                        <path
   d="m 0.071,0 v -0.716 h 0.216 l 0.13,0.488 0.128,-0.488 H 0.762 V 0 H 0.628 V -0.563 L 0.486,0 H 0.347 L 0.205,-0.563 V 0 Z"
   style="fill-rule:nonzero"
   id="path142" />
                    </g>
                    <g
   transform="matrix(-8.79678,-24.0919,24.0919,-8.79678,687.52,222.9)"
   id="g148">
                        <path
   d="M 0.234,0 V -0.595 H 0.021 V -0.716 H 0.59 v 0.121 H 0.378 V 0 Z"
   style="fill-rule:nonzero"
   id="path146" />
                    </g>
                    <g
   transform="matrix(-6.17858,-24.8923,24.8923,-6.17858,681.235,205.391)"
   id="g152">
                        <path
   d="m 0.073,0 v -0.716 h 0.531 v 0.121 H 0.217 v 0.159 h 0.36 v 0.121 h -0.36 v 0.194 h 0.4 V 0 Z"
   style="fill-rule:nonzero"
   id="path150" />
                    </g>
                    <g
   transform="matrix(-3.26824,-25.4385,25.4385,-3.26824,676.477,185.97)"
   id="g156">
                        <path
   d="m 0.073,0 v -0.716 h 0.304 c 0.077,0 0.133,0.007 0.167,0.019 0.035,0.013 0.063,0.036 0.083,0.069 0.021,0.033 0.032,0.071 0.032,0.113 0,0.054 -0.016,0.098 -0.048,0.133 -0.031,0.035 -0.078,0.057 -0.141,0.066 0.031,0.018 0.057,0.038 0.077,0.06 0.02,0.022 0.048,0.061 0.082,0.116 L 0.717,0 H 0.544 L 0.439,-0.156 C 0.402,-0.211 0.377,-0.247 0.363,-0.261 0.35,-0.275 0.335,-0.285 0.32,-0.291 0.305,-0.296 0.28,-0.299 0.247,-0.299 H 0.218 V 0 Z m 0.145,-0.413 h 0.107 c 0.069,0 0.112,-0.003 0.13,-0.009 0.017,-0.006 0.03,-0.016 0.04,-0.03 C 0.505,-0.466 0.51,-0.484 0.51,-0.506 0.51,-0.53 0.503,-0.549 0.49,-0.564 0.478,-0.579 0.459,-0.588 0.436,-0.592 0.424,-0.594 0.389,-0.595 0.331,-0.595 H 0.218 Z"
   style="fill-rule:nonzero"
   id="path154" />
                    </g>
                    <g
   transform="matrix(-0.49302,-25.6429,25.6429,-0.49302,673.876,164.663)"
   id="g160">
                        <path
   d="m 0.073,0 v -0.716 h 0.232 c 0.088,0 0.145,0.004 0.172,0.011 0.041,0.011 0.075,0.034 0.103,0.07 0.027,0.036 0.041,0.082 0.041,0.139 0,0.044 -0.008,0.081 -0.024,0.111 -0.016,0.03 -0.036,0.054 -0.061,0.071 -0.024,0.017 -0.049,0.028 -0.075,0.034 -0.034,0.007 -0.084,0.01 -0.149,0.01 H 0.217 V 0 Z m 0.144,-0.595 v 0.203 h 0.079 c 0.057,0 0.095,-0.003 0.115,-0.011 C 0.43,-0.41 0.445,-0.422 0.456,-0.438 0.467,-0.454 0.472,-0.472 0.472,-0.494 0.472,-0.52 0.465,-0.541 0.449,-0.558 0.434,-0.575 0.415,-0.586 0.391,-0.59 0.374,-0.593 0.339,-0.595 0.287,-0.595 Z"
   style="fill-rule:nonzero"
   id="path158" />
                    </g>
                    <g
   transform="matrix(2.03947,-25.5664,25.5664,2.03947,673.529,146.432)"
   id="g164">
                        <path
   d="M 0.718,0 H 0.561 L 0.499,-0.163 H 0.212 L 0.153,0 H 0 L 0.279,-0.716 H 0.432 Z M 0.452,-0.283 0.354,-0.549 0.257,-0.283 Z"
   style="fill-rule:nonzero"
   id="path162" />
                    </g>
                    <g
   transform="matrix(5.024,-25.1508,25.1508,5.024,675.383,125.117)"
   id="g168">
                        <path
   d="m 0.072,-0.716 h 0.264 c 0.06,0 0.105,0.005 0.137,0.014 0.042,0.012 0.078,0.034 0.108,0.066 0.03,0.031 0.052,0.07 0.068,0.116 0.016,0.045 0.023,0.102 0.023,0.169 0,0.059 -0.007,0.11 -0.022,0.152 C 0.632,-0.147 0.607,-0.104 0.574,-0.072 0.549,-0.048 0.515,-0.029 0.472,-0.015 0.44,-0.005 0.398,0 0.344,0 H 0.072 Z m 0.145,0.121 v 0.474 h 0.108 c 0.04,0 0.069,-0.002 0.087,-0.006 0.024,-0.006 0.043,-0.016 0.058,-0.03 0.016,-0.014 0.029,-0.037 0.038,-0.069 0.01,-0.032 0.015,-0.076 0.015,-0.131 0,-0.056 -0.005,-0.098 -0.015,-0.128 C 0.499,-0.514 0.485,-0.538 0.467,-0.554 0.45,-0.571 0.427,-0.582 0.4,-0.588 0.38,-0.592 0.341,-0.595 0.282,-0.595 Z"
   style="fill-rule:nonzero"
   id="path166" />
                    </g>
                    <g
   transform="matrix(7.86498,-24.4119,24.4119,7.86498,679.73,104.145)"
   id="g172">
                        <path
   d="m 0.072,-0.716 h 0.144 v 0.388 c 0,0.061 0.002,0.101 0.006,0.12 0.006,0.029 0.021,0.052 0.044,0.07 0.023,0.018 0.055,0.027 0.095,0.027 0.041,0 0.072,-0.009 0.093,-0.025 0.021,-0.017 0.033,-0.038 0.038,-0.062 0.004,-0.025 0.006,-0.065 0.006,-0.122 v -0.396 h 0.145 v 0.376 c 0,0.086 -0.004,0.147 -0.012,0.182 -0.008,0.036 -0.022,0.066 -0.043,0.09 C 0.567,-0.043 0.539,-0.024 0.503,-0.01 0.468,0.005 0.422,0.012 0.366,0.012 0.297,0.012 0.246,0.004 0.21,-0.011 0.175,-0.027 0.147,-0.048 0.126,-0.073 0.106,-0.098 0.092,-0.125 0.086,-0.152 0.076,-0.193 0.072,-0.254 0.072,-0.334 Z"
   style="fill-rule:nonzero"
   id="path170" />
                    </g>
                </g>
                <g
   transform="matrix(-0.235125,-2.24833,2.24833,-0.235125,1495.81,2478.36)"
   id="g232">
                    <g
   transform="matrix(-19.1291,17.0844,-17.0844,-19.1291,730.51,-4.09126)"
   id="g178">
                        <path
   d="m 0.036,-0.233 0.141,-0.014 c 0.008,0.048 0.025,0.082 0.051,0.104 0.026,0.023 0.061,0.034 0.105,0.034 0.047,0 0.082,-0.01 0.105,-0.03 0.024,-0.02 0.036,-0.043 0.036,-0.069 0,-0.017 -0.005,-0.031 -0.015,-0.043 C 0.449,-0.263 0.431,-0.273 0.407,-0.282 0.39,-0.288 0.351,-0.299 0.291,-0.313 0.214,-0.333 0.159,-0.356 0.128,-0.384 0.084,-0.424 0.062,-0.472 0.062,-0.528 c 0,-0.037 0.01,-0.071 0.031,-0.103 0.021,-0.031 0.05,-0.056 0.089,-0.072 0.039,-0.017 0.086,-0.025 0.141,-0.025 0.09,0 0.158,0.02 0.203,0.059 0.046,0.039 0.069,0.092 0.072,0.158 L 0.453,-0.505 C 0.447,-0.542 0.434,-0.568 0.413,-0.584 0.393,-0.6 0.362,-0.608 0.322,-0.608 0.28,-0.608 0.247,-0.6 0.223,-0.583 0.208,-0.571 0.2,-0.557 0.2,-0.538 c 0,0.017 0.007,0.031 0.022,0.043 0.018,0.016 0.062,0.032 0.132,0.048 0.071,0.017 0.123,0.034 0.156,0.052 0.034,0.017 0.061,0.042 0.08,0.072 0.019,0.031 0.028,0.069 0.028,0.115 0,0.041 -0.011,0.079 -0.034,0.115 -0.023,0.036 -0.055,0.062 -0.097,0.08 C 0.446,0.004 0.394,0.013 0.332,0.013 0.241,0.013 0.172,-0.008 0.123,-0.05 0.075,-0.092 0.046,-0.153 0.036,-0.233 Z"
   style="fill-rule:nonzero"
   id="path176" />
                    </g>
                    <g
   transform="matrix(-17.1058,19.11,-19.11,-17.1058,714.335,10.678)"
   id="g182">
                        <path
   d="M 0.718,0 H 0.561 L 0.499,-0.163 H 0.212 L 0.153,0 H 0 L 0.279,-0.716 H 0.432 Z M 0.452,-0.283 0.354,-0.549 0.257,-0.283 Z"
   style="fill-rule:nonzero"
   id="path180" />
                    </g>
                    <g
   transform="matrix(-14.9137,20.8658,-20.8658,-14.9137,699.049,28.2375)"
   id="g186">
                        <path
   d="m 0.074,0 v -0.716 h 0.49 v 0.121 H 0.218 v 0.17 h 0.299 v 0.121 H 0.218 V 0 Z"
   style="fill-rule:nonzero"
   id="path184" />
                    </g>
                    <g
   transform="matrix(-13.2604,21.9536,-21.9536,-13.2604,687.57,44.8547)"
   id="g190">
                        <rect
   x="0.068000004"
   y="-0.71600002"
   width="0.145"
   height="0.71600002"
   style="fill-rule:nonzero"
   id="rect188" />
                    </g>
                    <g
   transform="matrix(-11.3319,23.0085,-23.0085,-11.3319,681.47,54.8638)"
   id="g194">
                        <path
   d="m 0.074,0 v -0.716 h 0.141 l 0.293,0.478 V -0.716 H 0.642 V 0 H 0.497 L 0.208,-0.467 V 0 Z"
   style="fill-rule:nonzero"
   id="path192" />
                    </g>
                    <g
   transform="matrix(-8.58288,24.1689,-24.1689,-8.58288,671.408,75.9459)"
   id="g198">
                        <path
   d="M 0.718,0 H 0.561 L 0.499,-0.163 H 0.212 L 0.153,0 H 0 L 0.279,-0.716 H 0.432 Z M 0.452,-0.283 0.354,-0.549 0.257,-0.283 Z"
   style="fill-rule:nonzero"
   id="path196" />
                    </g>
                    <g
   transform="matrix(-6.13974,24.9019,-24.9019,-6.13974,664.478,96.0942)"
   id="g202">
                        <path
   d="M 0.234,0 V -0.595 H 0.021 V -0.716 H 0.59 v 0.121 H 0.378 V 0 Z"
   style="fill-rule:nonzero"
   id="path200" />
                    </g>
                    <g
   transform="matrix(-3.41357,25.4195,-25.4195,-3.41357,659.766,115.989)"
   id="g206">
                        <path
   d="m 0.072,-0.716 h 0.144 v 0.388 c 0,0.061 0.002,0.101 0.006,0.12 0.006,0.029 0.021,0.052 0.044,0.07 0.023,0.018 0.055,0.027 0.095,0.027 0.041,0 0.072,-0.009 0.093,-0.025 0.021,-0.017 0.033,-0.038 0.038,-0.062 0.004,-0.025 0.006,-0.065 0.006,-0.122 v -0.396 h 0.145 v 0.376 c 0,0.086 -0.004,0.147 -0.012,0.182 -0.008,0.036 -0.022,0.066 -0.043,0.09 C 0.567,-0.043 0.539,-0.024 0.503,-0.01 0.468,0.005 0.422,0.012 0.366,0.012 0.297,0.012 0.246,0.004 0.21,-0.011 0.175,-0.027 0.147,-0.048 0.126,-0.073 0.106,-0.098 0.092,-0.125 0.086,-0.152 0.076,-0.193 0.072,-0.254 0.072,-0.334 Z"
   style="fill-rule:nonzero"
   id="path204" />
                    </g>
                    <g
   transform="matrix(-0.472695,25.6433,-25.6433,-0.472695,656.947,139.176)"
   id="g210">
                        <path
   d="m 0.074,0 v -0.716 h 0.141 l 0.293,0.478 V -0.716 H 0.642 V 0 H 0.497 L 0.208,-0.467 V 0 Z"
   style="fill-rule:nonzero"
   id="path208" />
                    </g>
                    <g
   transform="matrix(2.4535,25.53,-25.53,2.4535,656.797,162.514)"
   id="g214">
                        <path
   d="m 0.074,0 v -0.716 h 0.141 l 0.293,0.478 V -0.716 H 0.642 V 0 H 0.497 L 0.208,-0.467 V 0 Z"
   style="fill-rule:nonzero"
   id="path212" />
                    </g>
                    <g
   transform="matrix(5.39279,25.0743,-25.0743,5.39279,659.315,185.733)"
   id="g218">
                        <path
   d="M 0.718,0 H 0.561 L 0.499,-0.163 H 0.212 L 0.153,0 H 0 L 0.279,-0.716 H 0.432 Z M 0.452,-0.283 0.354,-0.549 0.257,-0.283 Z"
   style="fill-rule:nonzero"
   id="path216" />
                    </g>
                    <g
   transform="matrix(7.90748,24.3982,-24.3982,7.90748,664.588,208.383)"
   id="g222">
                        <path
   d="m 0.331,-0.716 h 0.144 v 0.453 c 0,0.06 -0.005,0.105 -0.016,0.137 -0.014,0.042 -0.039,0.075 -0.076,0.1 C 0.347,0 0.298,0.012 0.238,0.012 0.167,0.012 0.113,-0.008 0.075,-0.047 0.037,-0.087 0.017,-0.145 0.017,-0.221 l 0.136,-0.016 c 0.002,0.041 0.008,0.07 0.018,0.087 0.016,0.026 0.04,0.039 0.072,0.039 0.032,0 0.055,-0.01 0.068,-0.028 0.013,-0.018 0.02,-0.056 0.02,-0.114 z"
   style="fill-rule:nonzero"
   id="path220" />
                    </g>
                    <g
   transform="matrix(10.5184,23.3915,-23.3915,10.5184,670.631,226.407)"
   id="g226">
                        <path
   d="M 0.718,0 H 0.561 L 0.499,-0.163 H 0.212 L 0.153,0 H 0 L 0.279,-0.716 H 0.432 Z M 0.452,-0.283 0.354,-0.549 0.257,-0.283 Z"
   style="fill-rule:nonzero"
   id="path224" />
                    </g>
                    <g
   transform="matrix(13.1569,22.0159,-22.0159,13.1569,680.487,247.62)"
   id="g230">
                        <path
   d="m 0.073,0 v -0.716 h 0.145 v 0.282 H 0.501 V -0.716 H 0.646 V 0 H 0.501 V -0.313 H 0.218 V 0 Z"
   style="fill-rule:nonzero"
   id="path228" />
                    </g>
                </g>
                <g
   transform="matrix(2.99687,0,0,2.99687,-1278.58,-353.806)"
   id="g236">
                    <path
   d="m 852.515,363.138 1.875,5.77 h 6.066 l -4.907,3.566 1.874,5.769 -4.908,-3.565 -4.908,3.565 1.875,-5.769 -4.908,-3.566 h 6.067 z"
   id="path234" />
                </g>
                <g
   transform="matrix(2.99687,0,0,2.99687,-560.611,-353.806)"
   id="g240">
                    <path
   d="m 852.515,363.138 1.875,5.77 h 6.066 l -4.907,3.566 1.874,5.769 -4.908,-3.565 -4.908,3.565 1.875,-5.769 -4.908,-3.566 h 6.067 z"
   id="path238" />
                </g>
                <g
   transform="matrix(0.665358,0,0,0.665358,1295.36,173.13)"
   id="g244">
                    <path
   d="m 219.621,855.885 25.884,-38.572 c 77.166,52.244 155.024,80.371 233.584,83.972 0.95,-0.758 1.919,-1.508 2.906,-2.247 -7.463,-2.94 -15.746,-5.367 -24.925,-7.118 -140.898,-26.887 -229.618,-69.939 -313.933,-215.929 -2.498,-4.326 -1.074,-9.901 3.178,-12.442 4.251,-2.541 9.731,-1.093 12.229,3.232 81.021,140.288 166.425,181.435 301.82,207.271 15.576,2.972 28.915,7.634 40.339,13.407 11.423,-5.773 24.762,-10.435 40.338,-13.407 135.274,-25.813 248.581,-99.023 311.304,-218.532 2.323,-4.426 7.74,-6.1 12.09,-3.737 4.35,2.363 5.996,7.874 3.673,12.299 -65.387,124.585 -182.754,200.928 -323.773,227.838 -9.179,1.751 -17.462,4.178 -24.925,7.118 0.793,0.593 1.572,1.193 2.335,1.794 75.031,-5.019 150.711,-32.338 227.037,-82.304 l 1.432,-1.215 0.115,0.199 0.303,-0.199 21.313,37.176 c 10.538,-8.118 22.617,-17.648 30.614,-24.662 16.977,-14.889 28.143,-34.679 28.143,-34.679 l -9.725,48.936 62.222,-0.72 -112.206,80.266 -0.187,0.949 -0.446,-0.496 -0.694,0.496 -0.77,-2.123 -24.481,-27.208 c -60.945,32.419 -121.977,52.724 -183.073,61.078 6.529,17.881 7.238,31.416 7.238,31.416 0.286,5.008 -3.479,9.31 -8.402,9.6 -4.923,0.291 -9.151,-3.54 -9.437,-8.548 0,0 -0.832,-13.355 -7.872,-30.305 -28.185,2.746 -56.388,2.956 -84.599,0.646 -6.795,16.642 -7.606,29.659 -7.606,29.659 -0.285,5.008 -4.514,8.839 -9.437,8.548 -4.922,-0.29 -8.687,-4.592 -8.402,-9.6 0,0 0.685,-13.068 6.903,-30.486 -64.533,-7.804 -129.139,-28.746 -193.831,-62.631 l -25.041,27.831 -0.77,2.123 -0.694,-0.496 -0.446,0.496 -0.21,-0.965 -112.183,-80.25 62.222,0.72 -9.725,-48.936 c 0,0 11.166,19.79 28.143,34.679 8.459,7.419 21.485,17.654 32.428,26.058 z m 441.391,-85.847 c 7.015,-4.221 13.649,-8.708 19.815,-13.451 -21.531,64.632 -101.344,111.921 -181.281,111.921 -78.853,0 -155.616,-47.375 -177.787,-111.087 6.272,4.207 12.868,8.228 19.722,12.049 19.807,31.971 47.286,48.417 47.286,48.417 -10.11,-9.851 -18.465,-23.59 -25.007,-37.104 6.079,2.81 12.279,5.466 18.553,7.957 19.103,26.918 42.181,40.73 42.181,40.73 -9.296,-9.058 -17.108,-21.403 -23.39,-33.834 5.472,1.849 10.972,3.571 16.473,5.16 19.214,27.478 42.784,41.585 42.784,41.585 -10.057,-9.799 -18.377,-23.446 -24.904,-36.89 6.496,1.535 12.951,2.872 19.32,4.001 13.367,25.95 30.356,41.255 30.356,41.255 -3.59,-11.674 -5.891,-25.188 -7.364,-38.051 8.126,0.807 15.999,1.222 23.52,1.222 8.203,0 16.701,-0.415 25.378,-1.227 -1.479,11.934 -3.694,24.262 -7.004,35.025 0,0 15.482,-13.947 28.518,-37.792 6.399,-1.041 12.844,-2.28 19.29,-3.71 -6.224,12.198 -13.915,24.25 -23.036,33.137 0,0 21.085,-12.62 39.632,-37.244 5.842,-1.597 11.655,-3.347 17.411,-5.247 -5.872,10.954 -12.942,21.556 -21.176,29.58 0,0 20.294,-12.147 38.576,-35.859 6.869,-2.698 13.596,-5.612 20.122,-8.734 -6.21,12.152 -13.881,24.152 -22.971,33.009 0,0 25.421,-15.214 44.983,-44.818 z M 498.174,138.608 c 180.173,0 326.451,148.815 326.451,332.114 0,183.299 -146.278,332.114 -326.451,332.114 -180.173,0 -326.451,-148.815 -326.451,-332.114 0,-183.299 146.278,-332.114 326.451,-332.114 z m 434.097,485.836 c 6.429,5.837 10.063,15.17 8.873,25.039 -1.191,9.868 -6.914,17.849 -14.507,21.658 0.071,1.343 0.028,2.715 -0.14,4.101 -1.402,11.625 -10.986,19.841 -21.388,18.337 -10.403,-1.504 -17.71,-12.163 -16.308,-23.787 0.576,-4.774 2.531,-8.972 5.356,-12.159 -1.907,-4.595 -2.702,-9.837 -2.05,-15.24 0.652,-5.403 2.662,-10.24 5.594,-14.136 -1.972,-3.88 -2.865,-8.49 -2.289,-13.263 1.403,-11.625 10.987,-19.841 21.389,-18.337 10.403,1.504 17.71,12.163 16.307,23.787 -0.167,1.386 -0.45,2.723 -0.837,4 z m -802.095,30.222 c 0,0 -38.689,0.788 -51.879,-30.324 C 65.905,595.11 59.7,586.187 59.7,586.187 c 14.518,-7.386 61.905,10.637 70.476,68.479 z m 5.278,-1.678 c 0,0 32.244,-21.767 25.67,-54.984 -6.176,-31.208 -6.071,-42.137 -6.071,-42.137 -16.068,2.339 -44.932,44.609 -19.599,97.121 z m 684.572,-59.141 c 1.327,-8.48 6.443,-16.044 14.119,-19.5 7.676,-3.457 16.028,-1.957 22.205,3.145 0.94,-0.681 1.952,-1.271 3.029,-1.757 9.043,-4.071 19.305,0.804 22.903,10.88 3.597,10.075 -0.823,21.561 -9.865,25.633 -3.713,1.671 -7.631,1.835 -11.209,0.749 -2.465,3.831 -5.9,6.954 -10.103,8.847 -4.203,1.892 -8.608,2.299 -12.747,1.442 -1.919,3.56 -4.853,6.482 -8.565,8.154 -9.043,4.071 -19.305,-0.804 -22.903,-10.879 -3.597,-10.076 0.823,-21.562 9.865,-25.633 1.078,-0.486 2.173,-0.844 3.271,-1.081 z m 137.809,-68.003 c 7.503,3.937 13.041,12.012 14.004,21.899 0.962,9.887 -2.887,19.157 -9.449,24.884 0.357,1.283 0.61,2.625 0.745,4.013 1.134,11.646 -6.417,22.18 -16.853,23.508 -10.435,1.329 -19.827,-7.048 -20.961,-18.694 -0.466,-4.782 0.533,-9.376 2.594,-13.222 -2.841,-3.944 -4.74,-8.814 -5.267,-14.227 -0.527,-5.413 0.388,-10.641 2.401,-15.204 -2.75,-3.233 -4.608,-7.464 -5.074,-12.246 -1.134,-11.646 6.418,-22.179 16.853,-23.507 10.435,-1.329 19.828,7.048 20.962,18.694 0.135,1.388 0.147,2.76 0.045,4.102 z m -853.171,54.482 c 0,0 -38.641,-2.118 -49.538,-34.136 -10.239,-30.082 -15.78,-39.446 -15.78,-39.446 15.014,-6.277 60.965,15.254 65.318,73.582 z m 5.386,-1.278 c 0,0 33.734,-19.288 29.587,-52.907 -3.897,-31.586 -2.999,-42.479 -2.999,-42.479 -16.194,1.127 -48.044,41.116 -26.588,95.386 z m 738.949,-58.784 c -0.532,-8.577 2.816,-17.28 9.535,-22.688 6.72,-5.407 15.161,-6.19 22.261,-2.899 0.767,-0.911 1.624,-1.755 2.568,-2.514 7.915,-6.37 18.937,-4.393 24.599,4.412 5.662,8.805 3.833,21.125 -4.082,27.495 -3.25,2.615 -7.024,3.823 -10.735,3.729 -1.574,4.374 -4.242,8.323 -7.921,11.284 -3.679,2.96 -7.874,4.534 -12.082,4.813 -1.1,3.965 -3.324,7.584 -6.574,10.199 -7.915,6.37 -18.938,4.393 -24.6,-4.412 -5.662,-8.805 -3.832,-21.125 4.083,-27.495 0.944,-0.759 1.931,-1.4 2.948,-1.924 z M 95.285,492.594 c 0,0 37.166,-10.963 40.655,-44.66 3.278,-31.659 6.591,-42.057 6.591,-42.057 -16.02,-2.655 -55.987,28.901 -47.246,86.717 z m -5.53,-0.004 c 0,0 -37.151,-11.017 -40.593,-44.718 -3.234,-31.664 -6.533,-42.066 -6.533,-42.066 16.025,-2.633 55.947,28.981 47.126,86.784 z m 875.132,-85.917 c 8.144,1.782 15.278,8.106 18.36,17.424 3.082,9.318 1.356,19.343 -3.775,26.668 0.626,1.147 1.163,2.379 1.595,3.687 3.631,10.976 -1.417,23.227 -11.266,27.34 -9.849,4.112 -20.792,-1.46 -24.423,-12.436 -1.49,-4.507 -1.518,-9.229 -0.351,-13.513 -3.617,-3.052 -6.519,-7.256 -8.206,-12.358 -1.688,-5.101 -1.934,-10.415 -0.969,-15.38 -3.374,-2.388 -6.098,-5.983 -7.588,-10.49 -3.631,-10.977 1.417,-23.227 11.266,-27.34 9.849,-4.113 20.792,1.459 24.423,12.436 0.433,1.308 0.742,2.634 0.934,3.962 z M 857.948,430.74 c -2.379,-8.165 -1.017,-17.505 4.336,-24.563 5.353,-7.059 13.383,-10.104 20.995,-8.837 0.547,-1.091 1.197,-2.141 1.948,-3.132 6.306,-8.315 17.444,-9.384 24.856,-2.387 7.412,6.998 8.31,19.43 2.005,27.744 -2.59,3.414 -5.993,5.607 -9.619,6.521 -0.579,4.664 -2.313,9.212 -5.244,13.077 -2.931,3.864 -6.664,6.526 -10.691,7.934 -0.208,4.141 -1.583,8.249 -4.172,11.663 -6.306,8.315 -17.443,9.384 -24.855,2.386 -7.413,-6.997 -8.311,-19.429 -2.005,-27.743 0.752,-0.991 1.572,-1.88 2.446,-2.663 z M 97.982,402.797 c 0,0 38.597,2.835 53.359,-27.538 13.87,-28.536 20.522,-37.12 20.522,-37.12 -14.12,-8.144 -62.365,7.348 -73.881,64.658 z m -5.185,-1.955 c 0,0 -31.088,-23.444 -22.825,-56.267 7.763,-30.839 8.217,-41.76 8.217,-41.76 15.927,3.187 42.591,46.927 14.608,98.027 z m 744.392,-52.818 c -3.919,-7.38 -4.411,-16.816 -0.557,-25 3.853,-8.183 11.105,-13.106 18.789,-13.724 0.322,-1.197 0.752,-2.378 1.293,-3.527 4.539,-9.64 15.213,-13.393 23.821,-8.376 8.609,5.017 11.913,16.917 7.374,26.556 -1.864,3.959 -4.762,6.924 -8.126,8.698 0.345,4.687 -0.462,9.543 -2.572,14.023 -2.109,4.481 -5.238,7.984 -8.897,10.338 0.605,4.086 0.063,8.425 -1.8,12.383 -4.539,9.64 -15.213,13.394 -23.821,8.376 -8.609,-5.017 -11.913,-16.916 -7.374,-26.556 0.541,-1.149 1.169,-2.215 1.87,-3.191 z m 99.796,-49.489 c 8.305,-0.245 16.51,4.184 21.34,12.517 4.83,8.333 5.1,18.524 1.516,26.914 0.836,0.966 1.601,2.036 2.279,3.206 5.69,9.816 3.148,22.986 -5.672,29.392 -8.821,6.407 -20.602,3.639 -26.292,-6.177 -2.336,-4.031 -3.284,-8.627 -2.98,-13.087 -4.13,-2.095 -7.786,-5.487 -10.431,-10.049 -2.644,-4.563 -3.922,-9.682 -3.948,-14.757 -3.763,-1.506 -7.127,-4.349 -9.463,-8.379 -5.69,-9.816 -3.148,-22.986 5.673,-29.393 8.82,-6.406 20.601,-3.638 26.291,6.178 0.678,1.17 1.239,2.388 1.687,3.635 z m -807.951,19.362 c 0,0 38.303,5.601 55.138,-23.635 15.816,-27.468 23.048,-35.552 23.048,-35.552 -13.52,-9.139 -62.72,2.848 -78.186,59.187 z m -5.036,-2.323 c 0,0 -29.383,-25.619 -18.861,-57.767 9.885,-30.204 11.096,-41.065 11.096,-41.065 15.666,4.323 39.226,49.87 7.765,98.832 z m 680.128,-49.298 c -5.117,-6.397 -7.221,-15.542 -4.841,-24.391 2.381,-8.848 8.66,-15.227 16.104,-17.479 0.111,-1.242 0.33,-2.493 0.664,-3.735 2.804,-10.423 12.646,-16.389 21.965,-13.313 9.319,3.075 14.609,14.034 11.805,24.457 -1.151,4.28 -3.489,7.808 -6.49,10.267 1.144,4.522 1.185,9.455 -0.118,14.3 -1.303,4.845 -3.775,8.949 -6.966,12.04 1.296,3.877 1.509,8.247 0.358,12.527 -2.804,10.423 -12.646,16.389 -21.965,13.313 -9.319,-3.075 -14.609,-14.034 -11.805,-24.457 0.334,-1.242 0.768,-2.422 1.289,-3.529 z m 89.547,-69.891 c 8.117,-2.019 16.939,0.566 23.116,7.701 6.176,7.136 8.192,17.07 6.112,26.063 0.986,0.768 1.921,1.653 2.788,2.655 7.276,8.405 7.041,21.862 -0.525,30.032 -7.565,8.169 -19.615,7.978 -26.891,-0.427 -2.987,-3.451 -4.708,-7.754 -5.176,-12.192 -4.417,-1.169 -8.591,-3.712 -11.973,-7.619 -3.382,-3.906 -5.516,-8.652 -6.413,-13.622 -3.956,-0.671 -7.748,-2.737 -10.736,-6.188 -7.276,-8.406 -7.04,-21.862 0.525,-30.032 7.566,-8.17 19.615,-7.979 26.891,0.426 0.868,1.002 1.628,2.076 2.282,3.203 z m -724.77,44.585 c 0,0 36.486,13.118 58.618,-12.201 20.794,-23.788 29.441,-30.276 29.441,-30.276 -11.5,-11.653 -62.054,-9.694 -88.059,42.477 z m -4.492,-3.281 c 0,0 -23.886,-30.973 -7.385,-60.404 15.504,-27.652 18.781,-38.062 18.781,-38.062 14.531,7.358 28.875,56.715 -11.396,98.466 z M 800.084,155.16 c 0.615,-8.577 5.079,-16.636 12.438,-20.875 7.358,-4.238 15.803,-3.614 22.381,0.82 0.88,-0.775 1.839,-1.468 2.872,-2.063 8.668,-4.993 19.297,-1.209 23.721,8.444 4.425,9.652 0.98,21.542 -7.688,26.535 -3.559,2.05 -7.448,2.62 -11.103,1.912 -2.136,4.068 -5.298,7.534 -9.326,9.855 -4.029,2.32 -8.383,3.183 -12.578,2.761 -1.614,3.743 -4.293,6.956 -7.852,9.006 -8.667,4.992 -19.297,1.208 -23.721,-8.444 -4.425,-9.653 -0.98,-21.543 7.688,-26.535 1.033,-0.595 2.094,-1.066 3.168,-1.416 z m -596.9,33.612 c 0,0 -4.47,-22.634 20.034,-45.027 24.505,-22.393 55.537,-31.049 55.537,-31.049 0,0 -19.388,84.144 -75.571,76.076 z"
   style="stroke:#2f2f2f;stroke-width:15.03px;stroke-linecap:round;stroke-miterlimit:1.5"
   id="path242"
   sodipodi:nodetypes="ccccccccsccssccccccccccccccccccccccccccccccccccccccccccscccccccccccccsccccccccccccsssssccccsscscssscccccccccccccccccccccccccccccscccscccccccccccccscccccscccscccscccsccccccccscccccccccccscsccccccccccccscscccccsccsccsccccsssccccccccccccccccscccscccccscccccccccccccccccccccscccscsccccc" />
                </g>
                <g
   transform="matrix(0.619757,0,0,0.631321,1301.68,175.131)"
   id="g505">
                    <g
   transform="matrix(3.31805,0,0,3.31379,-98.2195,-176.281)"
   id="g248">
                        <circle
   cx="187.715"
   cy="201.948"
   r="105.626"
   style="fill:#02b0ef"
   id="circle246" />
                    </g>
                    <g
   transform="matrix(2.51429,0,0,2.51106,-109.925,-117.184)"
   id="g252">
                        <path
   d="m 388.733,272.021 c -13.383,63.012 -69.385,110.341 -136.355,110.341 -66.969,0 -122.971,-47.329 -136.354,-110.341 z"
   style="fill:#3f3f95"
   id="path250" />
                    </g>
                    <g
   transform="matrix(2.51429,0,0,2.51106,-109.925,-117.184)"
   id="g256">
                        <path
   d="m 141.943,410.949 c 0,0 -15.102,-11.009 -22.351,-17.258 -7.249,-6.249 -12.016,-14.555 -12.016,-14.555 l 4.152,20.538 -26.568,-0.302 48.477,34.087 z"
   style="fill:#f7f50d"
   id="path254" />
                    </g>
                    <g
   transform="matrix(-2.51429,0,0,2.51106,1152.1,-117.184)"
   id="g260">
                        <path
   d="m 141.943,410.949 c 0,0 -15.102,-11.009 -22.351,-17.258 -7.249,-6.249 -12.016,-14.555 -12.016,-14.555 l 4.152,20.538 -26.568,-0.302 48.477,34.087 z"
   style="fill:#f7f50d"
   id="path258" />
                    </g>
                    <g
   transform="matrix(2.51429,0,0,2.51106,-109.925,-117.184)"
   id="g264">
                        <path
   d="m 144.491,388.438 15.832,15.337 -27.173,29.684 -4.693,-21.241 z"
   style="fill:#be8930"
   id="path262" />
                    </g>
                    <g
   transform="matrix(2.51429,0,0,2.51106,-109.925,-117.184)"
   id="g274">
                        <path
   d="m 317.743,333.605 0.17,-0.888 -1.198,0.598 0.298,0.6 c 0,0 0.859,2.006 4.872,1.33 3.258,-0.548 5.673,-0.945 7.145,-0.503 l 0.641,0.193 0.385,-1.284 -0.642,-0.193 c -1.595,-0.479 -4.218,-0.129 -7.751,0.466 -2.535,0.426 -3.332,-0.422 -3.461,-0.625 -0.21,-0.332 -0.362,-0.043 -0.459,0.306 z"
   style="fill:#ffffff"
   id="path266" />
                        <path
   d="m 260.029,337 2.049,-3.865 c 0,0 1.237,3.407 1.237,3.407 l 1.19,0.138 2.047,-3.131 c 0,0 1.604,3.483 1.604,3.483 l 1.061,0.212 2.741,-2.531 c 0,0 1,2.009 1,2.009 l 1.127,0.113 2.512,-3.227 c 0,0 1.394,4.701 1.394,4.701 l 1.257,0.073 1.844,-4.313 c 0,0 0.836,2.562 0.836,2.562 l 1.212,0.134 1.82,-3.073 c 0,0 1.379,3.523 1.379,3.523 l 1.159,0.157 1.873,-2.511 c 0,0 1.913,3.573 1.913,3.573 l 1.228,-0.116 1.361,-4.346 c 0,0 1.452,2.965 1.452,2.965 l 1.166,0.065 2.122,-3.333 c 0,0 0.628,1.706 0.628,1.706 l 1.111,0.232 1.972,-2.059 c 0,0 0.614,2.904 0.614,2.904 l 1.14,0.324 3.24,-3.405 c 0,0 2.121,5.008 2.121,5.008 h 1.232 l 1.79,-4.225 0.537,1.822 1.284,-0.379 -1.066,-3.617 -1.258,-0.072 -1.903,4.493 c 0,0 -1.903,-4.493 -1.903,-4.493 l -1.101,-0.201 -3.066,3.223 c 0,0 -0.613,-2.899 -0.613,-2.899 l -1.138,-0.325 -2.107,2.2 c 0,0 -0.725,-1.968 -0.725,-1.968 l -1.193,-0.129 -2.207,3.466 c 0,0 -1.665,-3.401 -1.665,-3.401 l -1.24,0.095 -1.386,4.427 c 0,0 -1.657,-3.097 -1.657,-3.097 l -1.126,-0.084 -1.782,2.389 c 0,0 -1.44,-3.679 -1.44,-3.679 l -1.199,-0.097 -1.765,2.981 c 0,0 -0.929,-2.848 -0.929,-2.848 l -1.252,-0.055 -1.814,4.242 c 0,0 -1.237,-4.169 -1.237,-4.169 l -1.169,-0.222 -2.659,3.415 c 0,0 -0.924,-1.855 -0.924,-1.855 l -1.053,-0.194 -2.719,2.511 c 0,0 -1.724,-3.745 -1.724,-3.745 l -1.167,-0.087 -1.978,3.025 c 0,0 -1.295,-3.567 -1.295,-3.567 l -1.221,-0.085 -2.754,5.197 z"
   style="fill:#ffffff"
   id="path268" />
                        <path
   d="m 190.467,337.891 1.314,-3.734 c 0,0 1.523,4.19 1.523,4.19 l 1.218,0.089 2.514,-4.668 c 0,0 1.605,3.545 1.605,3.545 l 1.175,0.082 1.551,-2.452 c 0,0 1.44,2.681 1.44,2.681 l 1.217,-0.084 1.285,-3.468 c 0,0 1.552,2.919 1.552,2.919 l 1.177,0.009 1.662,-3.005 c 0,0 1.728,4.284 1.728,4.284 l 1.159,0.146 2.707,-3.68 c 0,0 1.984,2.689 1.984,2.689 l 1.173,-0.186 1.002,-3.004 c 0,0 1.605,3.437 1.605,3.437 l 1.244,-0.081 0.749,-2.361 c 0,0 1.491,2.501 1.491,2.501 l 1.186,-0.071 1.626,-3.657 c 0,0 1.348,2.365 1.348,2.365 l 1.172,-0.017 1.289,-2.421 c 0,0 1.478,2.698 1.478,2.698 l 1.09,0.12 2.708,-3.093 c 0,0 2.162,3.626 2.162,3.626 l 1.166,-0.029 1.659,-3.127 1.283,3.288 1.247,-0.488 -1.813,-4.648 -1.215,-0.07 -1.786,3.366 c 0,0 -2.025,-3.396 -2.025,-3.396 l -1.078,-0.098 -2.684,3.065 c 0,0 -1.613,-2.945 -1.613,-2.945 l -1.178,0.007 -1.301,2.443 c 0,0 -1.402,-2.46 -1.402,-2.46 l -1.193,0.06 -1.638,3.685 c 0,0 -1.592,-2.671 -1.592,-2.671 l -1.213,0.141 -0.68,2.146 c 0,0 -1.59,-3.403 -1.59,-3.403 l -1.241,0.072 -1.125,3.373 c 0,-10e-4 -1.758,-2.383 -1.758,-2.383 h -1.077 l -2.534,3.446 c 0,0 -1.804,-4.475 -1.804,-4.475 l -1.206,-0.074 -1.746,3.157 c 0,0 -1.674,-3.147 -1.674,-3.147 l -1.219,0.082 -1.287,3.476 c 0,0 -1.281,-2.385 -1.281,-2.385 l -1.155,-0.041 -1.5,2.372 c 0,0 -1.651,-3.646 -1.651,-3.646 l -1.198,-0.041 -2.447,4.543 c 0,0 -1.653,-4.545 -1.653,-4.545 l -1.26,0.007 -1.935,5.499 z"
   style="fill:#ffffff"
   id="path270" />
                        <path
   d="m 187.943,335.093 c 0.274,-0.223 0.646,-0.639 0.205,-1.019 -0.032,-0.028 -0.211,-0.205 -0.789,-0.339 -0.635,-0.146 -1.977,-0.283 -4.723,0.022 -4.184,0.465 -7.438,-0.768 -7.438,-0.768 l -0.626,-0.238 -0.476,1.253 0.626,0.238 c 0,0 3.526,1.351 8.061,0.847 3.225,-0.358 4.535,0.034 4.535,0.034 l -0.075,-0.062 c 0,0 0.472,0.194 0.472,0.194 v 0.277 l 0.946,-0.948 z"
   style="fill:#ffffff"
   id="path272" />
                    </g>
                    <g
   transform="matrix(-2.51429,0,0,2.51106,1152.1,-117.184)"
   id="g278">
                        <path
   d="m 141.943,388.438 18.38,15.337 -27.173,29.684 -4.508,-22.51 z"
   style="fill:#be8930"
   id="path276" />
                    </g>
                    <g
   transform="matrix(2.51429,0,0,2.51106,-109.925,-117.184)"
   id="g282">
                        <path
   d="m 156.798,313.858 c 6.164,-8.505 17.232,-14.18 29.85,-14.18 9.365,0 17.877,3.126 24.164,8.216 9.976,-5.459 25.384,-8.216 42.66,-8.216 16.778,0 31.793,2.6 41.784,7.751 6.224,-4.814 14.499,-7.751 23.576,-7.751 10.848,0 20.55,4.194 26.975,10.775 -6.082,-4.327 -13.922,-6.934 -22.474,-6.934 -10.625,0 -20.152,4.024 -26.576,10.374 -9.953,-5.692 -25.645,-8.567 -43.285,-8.567 -19.199,0 -36.091,3.406 -45.788,10.143 -6.42,-6.215 -15.843,-10.143 -26.339,-10.143 -9.557,0 -18.225,3.256 -24.547,8.532 z"
   style="fill:#ffffff"
   id="path280" />
                    </g>
                    <g
   transform="matrix(2.51429,0,0,2.51106,-109.925,-117.184)"
   id="g286">
                        <path
   d="m 251.42,242.013 h -17.702 l -1.761,-2.276 c 0,0 -3.874,-0.497 -5.518,2.276 -1.644,2.773 -2.231,7.469 -2.231,7.469 h 10.449 L 241.35,256 c 0,0 8.048,-5.136 10.07,-13.987 z"
   style="fill:#f9fffb"
   id="path284" />
                    </g>
                    <g
   transform="matrix(-2.51429,0,0,2.51106,1154.36,-117.184)"
   id="g290">
                        <path
   d="m 251.42,242.013 h -17.702 l -1.761,-2.276 c 0,0 -3.874,-0.497 -5.518,2.276 -1.644,2.773 -2.231,7.469 -2.231,7.469 h 10.449 L 241.35,256 c 0,0 8.048,-5.136 10.07,-13.987 z"
   style="fill:#f9fffb"
   id="path288" />
                    </g>
                    <g
   transform="matrix(2.51429,0,0,2.51106,-109.925,-117.184)"
   id="g294">
                        <path
   d="m 286.962,178.27 c -6.479,-6.846 -64.231,-7.579 -70.601,0 v 45.412 c 0,0 6.769,-4.332 10.948,-4.771 10.054,-1.057 39.432,-1.131 49.375,-0.089 4.003,0.419 10.278,4.86 10.278,4.86 z"
   style="fill:#f9fffb"
   id="path292" />
                    </g>
                    <g
   transform="matrix(2.51429,0,0,2.51106,-109.925,-117.184)"
   id="g298">
                        <path
   d="m 244.089,179.421 h 14.663 v -6.4 c 0.67,0.027 1.338,0.056 2,0.089 v 45.022 c -0.66,-0.01 -1.327,-0.018 -2,-0.025 v -5.07 h -14.663 v 5.117 c -0.674,0.011 -1.342,0.024 -2,0.038 v -5.682 c -0.076,-0.14 -0.119,-0.302 -0.119,-0.473 0,-0.171 0.043,-0.332 0.119,-0.473 v -3.962 c -0.076,-0.141 -0.119,-0.302 -0.119,-0.473 0,-0.171 0.043,-0.332 0.119,-0.473 v -33.631 c 0.662,-0.027 1.328,-0.051 2,-0.072 z m 0,28.708 v 2.908 h 14.663 v -2.908 z m 0,-5.181 v 3.181 h 14.663 v -3.181 z m 0,-5.506 v 3.506 h 14.663 v -3.506 z m 0,-5.009 v 3.009 h 14.663 v -3.009 z m 0,-5.506 v 3.506 h 14.663 v -3.506 z m 0,-5.506 v 3.506 h 14.663 v -3.506 z"
   style="fill:#1b1b1b"
   id="path296" />
                    </g>
                    <g
   transform="matrix(2.51429,0,0,2.51106,-115.683,-115.986)"
   id="g302">
                        <rect
   x="251.42"
   y="164.258"
   width="4.5799999"
   height="83.593002"
   style="fill:#1b1b1b"
   id="rect300" />
                    </g>
                    <g
   transform="matrix(2.51429,0,0,2.51106,-109.925,-117.184)"
   id="g306">
                        <path
   d="m 251.42,291.71 v -49.697 c 0,0 -5.513,9.697 -13.652,15.758 -8.138,6.06 -16.104,10.319 -16.104,10.319 l 17.663,23.62 z"
   style="fill:#fff209"
   id="path304" />
                    </g>
                    <g
   transform="matrix(-2.51429,0,0,2.51106,1154.36,-117.184)"
   id="g310">
                        <path
   d="m 251.42,291.71 v -49.697 c 0,0 -5.513,9.697 -13.652,15.758 -8.138,6.06 -16.104,10.319 -16.104,10.319 l 17.663,23.62 z"
   style="fill:#fff209"
   id="path308" />
                    </g>
                    <g
   transform="matrix(1.07358,0,0,1.05391,-10.2017,-3.16999)"
   id="g314">
                        <path
   d="m 467.608,588.848 h 56.645 c 0.637,0 1.235,-0.302 1.612,-0.815 l 41.365,-56.279 c 0.342,-0.465 0.466,-1.056 0.34,-1.62 -0.126,-0.563 -0.489,-1.045 -0.996,-1.321 0,0 -18.53,-10.08 -37.463,-24.423 -18.744,-14.2 -31.435,-36.926 -31.435,-36.926 l -0.006,-0.012 -0.021,-0.035 -0.021,-0.034 -0.017,-0.028 -0.023,-0.035 -0.005,-0.007 c -0.108,-0.158 -0.235,-0.297 -0.378,-0.415 l -0.006,-0.005 -0.032,-0.025 -0.027,-0.022 -0.033,-0.024 -0.006,-0.004 c -0.15,-0.109 -0.317,-0.197 -0.497,-0.261 l -0.007,-0.003 -0.04,-0.014 -0.032,-0.01 -0.038,-0.012 -0.039,-0.01 -0.04,-0.011 -0.039,-0.009 -0.04,-0.008 -0.04,-0.008 -0.04,-0.007 -0.04,-0.006 -0.041,-0.005 -0.04,-0.005 -0.041,-0.003 -0.025,-0.002 -0.016,-0.001 -0.026,-0.002 h -0.015 l -0.026,-10e-4 h -0.015 l -0.026,-10e-4 h -0.015 l -0.026,10e-4 h -0.015 l -0.026,10e-4 -0.041,0.002 -0.041,0.003 -0.041,0.003 -0.04,0.005 -0.041,0.005 -0.04,0.006 -0.04,0.007 -0.04,0.008 -0.04,0.008 -0.039,0.009 -0.04,0.011 -0.039,0.01 -0.038,0.012 -0.032,0.01 -0.04,0.014 -0.008,0.003 c -0.179,0.064 -0.346,0.152 -0.496,0.261 l -0.006,0.004 -0.033,0.024 -0.027,0.022 -0.032,0.025 -0.006,0.005 c -0.143,0.118 -0.27,0.257 -0.378,0.415 l -0.005,0.007 -0.023,0.035 -0.017,0.028 -0.021,0.034 -0.021,0.035 -0.006,0.012 c 0,0 -12.691,22.726 -31.435,36.926 -18.933,14.343 -37.463,24.423 -37.463,24.423 -0.507,0.276 -0.871,0.758 -0.996,1.321 -0.126,0.564 -0.002,1.155 0.34,1.62 l 41.365,56.279 c 0.377,0.513 0.975,0.815 1.612,0.815 z m 30.322,-76.502 v 72.502 h 25.311 l 22.135,-30.116 c -6.243,-3.834 -32.018,-20.447 -47.446,-42.386 z m -4,0 c -15.43,21.941 -41.201,38.552 -47.446,42.386 l 22.136,30.116 h 25.31 v 0 z m 0,-7.324 v -29.546 c -5.216,7.954 -15.535,22.08 -28.764,32.102 -15.455,11.708 -30.644,20.611 -35.97,23.632 l 14.912,20.29 c 5.854,-3.555 35.293,-22.219 49.822,-46.478 z m 4,0 c 14.526,24.257 43.967,42.922 49.822,46.478 l 14.913,-20.29 c -5.326,-3.021 -20.516,-11.924 -35.97,-23.632 -13.229,-10.022 -23.548,-24.148 -28.765,-32.103 z"
   style="fill:#1b1b1b"
   id="path312" />
                    </g>
                    <g
   transform="matrix(2.51429,0,0,2.51106,-109.925,-117.184)"
   id="g318">
                        <path
   d="m 128.804,270.649 3.615,-6.287 c 0,0 1.174,8.073 1.174,8.073 l 1.662,0.461 6.042,-7.385 c 0,0 2.34,5.772 2.34,5.772 l 1.587,0.261 3.8,-4.408 c 0,0 1.638,5.061 1.638,5.061 l 1.743,0.124 3.227,-6.607 c 0,0 3.289,7.361 3.289,7.361 l 1.707,0.029 2.895,-5.922 c 0,0 0.608,5.226 0.608,5.226 l 1.772,0.326 4.085,-7.855 c 0,0 2.021,5.773 2.021,5.773 l 1.628,0.275 3.435,-4.332 c 0,0 2.963,8.557 2.963,8.557 l 1.786,-0.015 3.098,-9.457 c 0,0 4.02,6.341 4.02,6.341 l 1.605,-0.02 3.553,-5.923 c 0,0 0.993,3.723 0.993,3.723 l 1.702,0.268 2.755,-4.27 c 0,0 1.611,6.151 1.611,6.151 l 1.671,0.319 5.064,-6.906 c 0,0 1.073,8.425 1.073,8.425 l 1.806,0.241 3.861,-9.355 0.967,5.391 1.855,-0.333 -1.537,-8.563 -1.798,-0.193 -3.734,9.046 c 0,0 -0.921,-7.239 -0.921,-7.239 l -1.695,-0.439 -5.29,7.214 c 0,0 -1.652,-6.308 -1.652,-6.308 l -1.704,-0.272 -2.762,4.28 c 0,0 -1.017,-3.816 -1.017,-3.816 l -1.719,-0.242 -3.913,6.521 c 0,0 -4.272,-6.737 -4.272,-6.737 l -1.692,0.211 -2.848,8.697 c 0,0 -2.609,-7.537 -2.609,-7.537 l -1.629,-0.277 -3.44,4.337 c 0,0 -2.176,-6.216 -2.176,-6.216 l -1.726,-0.124 -3.673,7.063 c 0,0 -0.624,-5.366 -0.624,-5.366 l -1.782,-0.306 -3.422,7 c 0,0 -3.29,-7.362 -3.29,-7.362 l -1.707,-0.029 -3.087,6.32 c 0,0 -1.434,-4.434 -1.434,-4.434 l -1.611,-0.325 -3.887,4.508 c 0,0 -2.357,-5.813 -2.357,-5.813 l -1.603,-0.243 -5.694,6.959 c 0,0 -1.258,-8.652 -1.258,-8.652 l -1.75,-0.334 -4.972,8.648 z"
   style="fill:#ffffff"
   id="path316" />
                    </g>
                    <g
   transform="matrix(2.51429,0,0,2.51106,-109.925,-117.184)"
   id="g322">
                        <path
   d="m 287.501,270.521 1.588,-5.776 c 0,0 3.125,9.227 3.125,9.227 h 1.785 l 2.887,-8.507 c 0,0 2.782,7.175 2.782,7.175 l 1.74,0.04 2.861,-6.473 c 0,0 2.268,5.104 2.268,5.104 l 1.7,0.048 2.966,-5.785 c 0,0 2.955,7.463 2.955,7.463 l 1.703,0.105 3.591,-6.583 c 0,0 2.897,10.302 2.897,10.302 l 1.772,0.121 4.494,-10.32 c 0,0 2.223,4.307 2.223,4.307 l 1.709,-0.074 2.227,-5.429 c 0,0 2.872,7.559 2.872,7.559 l 1.801,-0.13 1.382,-6.219 c 0,0 3.512,7.023 3.512,7.023 l 1.719,-0.074 2.869,-7.248 c 0,0 1.651,3.937 1.651,3.937 l 1.657,0.152 2.788,-4.256 c 0,0 2.812,6.092 2.812,6.092 l 1.683,0.057 3.796,-6.961 c 0,0 3.329,7.292 3.329,7.292 l 1.729,-0.032 3.352,-8.141 3.81,7.1 1.661,-0.891 -4.753,-8.857 -1.701,0.086 -3.285,7.977 c 0,0 -3.209,-7.03 -3.209,-7.03 l -1.685,-0.06 -3.801,6.968 c 0,0 -2.739,-5.933 -2.739,-5.933 l -1.644,-0.122 -2.748,4.195 c 0,0 -1.859,-4.434 -1.859,-4.434 l -1.746,0.018 -2.943,7.436 c 0,0 -3.756,-7.511 -3.756,-7.511 l -1.763,0.217 -1.275,5.737 c 0,0 -2.601,-6.846 -2.601,-6.846 l -1.753,-0.023 -2.359,5.748 c 0,0 -2.197,-4.256 -2.197,-4.256 l -1.701,0.055 -4.231,9.715 c 0,0 -2.808,-9.985 -2.808,-9.985 l -1.735,-0.196 -3.735,6.848 c 0,0 -2.98,-7.527 -2.98,-7.527 l -1.715,-0.083 -3.016,5.882 c 0,0 -2.332,-5.247 -2.332,-5.247 l -1.723,0.002 -2.801,6.339 c 0,0 -2.898,-7.474 -2.898,-7.474 l -1.771,0.038 -2.827,8.331 c 0,0 -3.219,-9.505 -3.219,-9.505 l -1.801,0.052 -2.404,8.74 z"
   style="fill:#ffffff"
   id="path320" />
                    </g>
                    <g
   transform="matrix(2.51429,0,0,2.51106,-109.925,-117.184)"
   id="g326">
                        <path
   d="m 152.109,206.531 c -4.678,-4.238 -7.618,-10.36 -7.618,-17.162 0,-12.107 9.311,-22.056 21.158,-23.071 1.014,-11.846 10.964,-21.157 23.07,-21.157 2.836,0 5.554,0.511 8.065,1.445 3.007,-9.3 11.742,-16.034 22.038,-16.034 4.591,0 8.871,1.339 12.472,3.647 3.909,-7.269 11.586,-12.214 20.41,-12.214 8.716,0 16.313,4.826 20.265,11.95 3.51,-2.146 7.637,-3.383 12.05,-3.383 10.295,0 19.031,6.734 22.038,16.034 2.511,-0.934 5.229,-1.445 8.065,-1.445 12.106,0 22.055,9.311 23.07,21.157 11.847,1.015 21.158,10.964 21.158,23.071 0,5.783 -2.125,11.073 -5.636,15.134 1.201,-2.799 1.865,-5.879 1.865,-9.114 0,-11.18 -7.94,-20.52 -18.486,-22.684 -1.05,-11.809 -10.983,-21.081 -23.064,-21.081 -2.887,0 -5.651,0.53 -8.202,1.497 -3.128,-9.086 -11.757,-15.622 -21.901,-15.622 -3.991,0 -7.748,1.012 -11.028,2.794 -3.97,-7.055 -11.529,-11.825 -20.194,-11.825 -8.594,0 -16.1,4.691 -20.096,11.651 -3.202,-1.674 -6.842,-2.62 -10.702,-2.62 -10.144,0 -18.773,6.536 -21.901,15.622 -2.55,-0.967 -5.315,-1.497 -8.202,-1.497 -12.081,0 -22.013,9.272 -23.064,21.081 -10.546,2.164 -18.486,11.504 -18.486,22.684 0,4.039 1.036,7.837 2.856,11.142 z"
   style="fill:#ffffff"
   id="path324" />
                    </g>
                    <g
   transform="matrix(2.51429,0,0,2.51106,-109.925,-117.184)"
   id="g330">
                        <path
   d="m 264.852,161.896 c 2.694,2.694 4.193,5.569 3.346,6.416 -0.847,0.847 -3.722,-0.652 -6.416,-3.346 -2.694,-2.694 -4.193,-5.569 -3.346,-6.416 0.847,-0.847 3.722,0.652 6.416,3.346 z m -27.059,-0.599 c -2.694,2.693 -4.194,5.568 -3.346,6.416 0.847,0.847 3.722,-0.653 6.416,-3.346 2.693,-2.694 4.193,-5.569 3.346,-6.417 -0.848,-0.847 -3.722,0.653 -6.416,3.347 z m 13.529,-19.415 c 2.582,0 4.678,5.617 4.678,12.534 0,6.917 -2.096,12.533 -4.678,12.533 -2.581,0 -4.677,-5.616 -4.677,-12.533 0,-6.917 2.096,-12.534 4.677,-12.534 z m 15.333,8.192 c 3.809,0 6.902,0.973 6.902,2.171 0,1.198 -3.093,2.171 -6.902,2.171 -3.81,0 -6.903,-0.973 -6.903,-2.171 0,-1.198 3.093,-2.171 6.903,-2.171 z m -30.469,0 c 3.81,0 6.903,0.973 6.903,2.171 0,1.198 -3.093,2.171 -6.903,2.171 -3.809,0 -6.902,-0.973 -6.902,-2.171 0,-1.198 3.093,-2.171 6.902,-2.171 z m 24.472,-10.136 c -2.694,2.694 -4.194,5.569 -3.346,6.416 0.847,0.847 3.722,-0.652 6.416,-3.346 2.693,-2.694 4.193,-5.569 3.346,-6.416 -0.848,-0.847 -3.723,0.652 -6.416,3.346 z m -18.475,0 c 2.694,2.694 4.194,5.569 3.346,6.416 -0.847,0.847 -3.722,-0.652 -6.416,-3.346 -2.694,-2.694 -4.193,-5.569 -3.346,-6.416 0.847,-0.847 3.722,0.652 6.416,3.346 z m 6.948,-8.172 c 0,-3.81 0.972,-6.903 2.17,-6.903 1.199,0 2.171,3.093 2.171,6.903 0,3.809 -0.972,6.902 -2.171,6.902 -1.198,0 -2.17,-3.093 -2.17,-6.902 z"
   style="fill:#cb2f35"
   id="path328" />
                    </g>
                    <g
   transform="matrix(2.51429,0,0,2.51106,-105.094,-120.584)"
   id="g334">
                        <path
   d="m 319.987,369.951 c 2.995,-1.772 5.828,-3.655 8.461,-5.646 -9.193,27.127 -43.273,46.975 -77.405,46.975 -33.67,0 -66.447,-19.884 -75.913,-46.625 2.678,1.766 5.494,3.454 8.421,5.057 8.457,13.419 20.19,20.321 20.19,20.321 -4.317,-4.134 -7.884,-9.901 -10.678,-15.573 2.596,1.18 5.243,2.295 7.922,3.34 8.157,11.298 18.011,17.095 18.011,17.095 -3.969,-3.802 -7.305,-8.983 -9.987,-14.201 2.337,0.776 4.685,1.499 7.034,2.166 8.204,11.533 18.268,17.454 18.268,17.454 -4.294,-4.113 -7.847,-9.841 -10.633,-15.483 2.773,0.644 5.529,1.205 8.249,1.679 5.707,10.891 12.962,17.315 12.962,17.315 -1.533,-4.9 -2.516,-10.572 -3.145,-15.97 3.47,0.338 6.832,0.512 10.043,0.512 3.503,0 7.131,-0.174 10.836,-0.515 -0.631,5.009 -1.577,10.183 -2.99,14.701 0,0 6.61,-5.854 12.176,-15.862 2.733,-0.437 5.485,-0.957 8.237,-1.557 -2.657,5.12 -5.941,10.178 -9.836,13.908 0,0 9.003,-5.297 16.923,-15.632 2.494,-0.67 4.976,-1.404 7.434,-2.202 -2.507,4.598 -5.526,9.047 -9.042,12.415 0,0 8.665,-5.098 16.472,-15.05 2.932,-1.133 5.805,-2.356 8.591,-3.666 -2.651,5.1 -5.927,10.137 -9.808,13.854 0,0 10.854,-6.385 19.207,-18.81 z"
   style="fill:#1b1b1b"
   id="path332" />
                    </g>
                    <g
   transform="matrix(1.17278,-0.518393,0.466639,1.28291,609.983,129.515)"
   id="g340">
                        <path
   d="m 59.347,408.402 c 3.435,-5.578 9.599,-9.301 16.626,-9.301 7.027,0 13.191,3.723 16.625,9.301 0.933,-0.182 1.897,-0.277 2.884,-0.277 8.277,0 14.998,6.72 14.998,14.997 0,8.278 -6.721,14.998 -14.998,14.998 -3.399,0 -6.535,-1.133 -9.051,-3.041 -3.022,1.925 -6.611,3.041 -10.458,3.041 -3.848,0 -7.436,-1.116 -10.459,-3.041 -2.516,1.908 -5.652,3.041 -9.051,3.041 -8.277,0 -14.997,-6.72 -14.997,-14.998 0,-8.277 6.72,-14.997 14.997,-14.997 0.987,0 1.951,0.095 2.884,0.277 z"
   style="fill:#ffffff"
   id="path336" />
                        <path
   d="m 70.856,434.784 c 1.052,-7.95 5.008,-12.436 5.008,-12.436 0,0 5.291,7.374 5.316,13.073 0.559,-0.758 1.239,-1.487 2.066,-2.137 4.495,-3.53 13.694,-3.849 13.694,-3.849 0,0 -1.156,5.975 -6.938,11.711 -1.186,1.177 -2.553,1.835 -3.919,2.168 -2.507,3.434 -6.109,5.588 -10.11,5.588 -4.086,0 -7.756,-2.246 -10.268,-5.806 -1.109,-0.375 -2.198,-0.99 -3.166,-1.95 -5.782,-5.736 -6.938,-11.711 -6.938,-11.711 0,0 9.199,0.319 13.694,3.849 0.593,0.465 1.11,0.972 1.561,1.5 z"
   style="fill:#3e8241"
   id="path338" />
                    </g>
                    <g
   transform="matrix(1.0266,-0.811005,0.734345,1.1211,540.431,135.416)"
   id="g346">
                        <path
   d="m 59.347,408.402 c 3.435,-5.578 9.599,-9.301 16.626,-9.301 7.027,0 13.191,3.723 16.625,9.301 0.933,-0.182 1.897,-0.277 2.884,-0.277 8.277,0 14.998,6.72 14.998,14.997 0,8.278 -6.721,14.998 -14.998,14.998 -3.399,0 -6.535,-1.133 -9.051,-3.041 -3.022,1.925 -6.611,3.041 -10.458,3.041 -3.848,0 -7.436,-1.116 -10.459,-3.041 -2.516,1.908 -5.652,3.041 -9.051,3.041 -8.277,0 -14.997,-6.72 -14.997,-14.998 0,-8.277 6.72,-14.997 14.997,-14.997 0.987,0 1.951,0.095 2.884,0.277 z"
   style="fill:#ffffff"
   id="path342" />
                        <path
   d="m 70.856,434.784 c 1.052,-7.95 5.008,-12.436 5.008,-12.436 0,0 5.291,7.374 5.316,13.073 0.559,-0.758 1.239,-1.487 2.066,-2.137 4.495,-3.53 13.694,-3.849 13.694,-3.849 0,0 -1.156,5.975 -6.938,11.711 -1.186,1.177 -2.553,1.835 -3.919,2.168 -2.507,3.434 -6.109,5.588 -10.11,5.588 -4.086,0 -7.756,-2.246 -10.268,-5.806 -1.109,-0.375 -2.198,-0.99 -3.166,-1.95 -5.782,-5.736 -6.938,-11.711 -6.938,-11.711 0,0 9.199,0.319 13.694,3.849 0.593,0.465 1.11,0.972 1.561,1.5 z"
   style="fill:#3e8241"
   id="path344" />
                    </g>
                    <g
   transform="matrix(0.817878,-1.05867,0.96138,0.890963,469.704,149.751)"
   id="g352">
                        <path
   d="m 59.347,408.402 c 3.435,-5.578 9.599,-9.301 16.626,-9.301 7.027,0 13.191,3.723 16.625,9.301 0.933,-0.182 1.897,-0.277 2.884,-0.277 8.277,0 14.998,6.72 14.998,14.997 0,8.278 -6.721,14.998 -14.998,14.998 -3.399,0 -6.535,-1.133 -9.051,-3.041 -3.022,1.925 -6.611,3.041 -10.458,3.041 -3.848,0 -7.436,-1.116 -10.459,-3.041 -2.516,1.908 -5.652,3.041 -9.051,3.041 -8.277,0 -14.997,-6.72 -14.997,-14.998 0,-8.277 6.72,-14.997 14.997,-14.997 0.987,0 1.951,0.095 2.884,0.277 z"
   style="fill:#ffffff"
   id="path348" />
                        <path
   d="m 70.856,434.784 c 1.052,-7.95 5.008,-12.436 5.008,-12.436 0,0 5.291,7.374 5.316,13.073 0.559,-0.758 1.239,-1.487 2.066,-2.137 4.495,-3.53 13.694,-3.849 13.694,-3.849 0,0 -1.156,5.975 -6.938,11.711 -1.186,1.177 -2.553,1.835 -3.919,2.168 -2.507,3.434 -6.109,5.588 -10.11,5.588 -4.086,0 -7.756,-2.246 -10.268,-5.806 -1.109,-0.375 -2.198,-0.99 -3.166,-1.95 -5.782,-5.736 -6.938,-11.711 -6.938,-11.711 0,0 9.199,0.319 13.694,3.849 0.593,0.465 1.11,0.972 1.561,1.5 z"
   style="fill:#3e8241"
   id="path350" />
                    </g>
                    <g
   transform="matrix(0.588677,-1.22741,1.11653,0.6388,397.658,175.574)"
   id="g358">
                        <path
   d="m 59.347,408.402 c 3.435,-5.578 9.599,-9.301 16.626,-9.301 7.027,0 13.191,3.723 16.625,9.301 0.933,-0.182 1.897,-0.277 2.884,-0.277 8.277,0 14.998,6.72 14.998,14.997 0,8.278 -6.721,14.998 -14.998,14.998 -3.399,0 -6.535,-1.133 -9.051,-3.041 -3.022,1.925 -6.611,3.041 -10.458,3.041 -3.848,0 -7.436,-1.116 -10.459,-3.041 -2.516,1.908 -5.652,3.041 -9.051,3.041 -8.277,0 -14.997,-6.72 -14.997,-14.998 0,-8.277 6.72,-14.997 14.997,-14.997 0.987,0 1.951,0.095 2.884,0.277 z"
   style="fill:#ffffff"
   id="path354" />
                        <path
   d="m 70.856,434.784 c 1.052,-7.95 5.008,-12.436 5.008,-12.436 0,0 5.291,7.374 5.316,13.073 0.559,-0.758 1.239,-1.487 2.066,-2.137 4.495,-3.53 13.694,-3.849 13.694,-3.849 0,0 -1.156,5.975 -6.938,11.711 -1.186,1.177 -2.553,1.835 -3.919,2.168 -2.507,3.434 -6.109,5.588 -10.11,5.588 -4.086,0 -7.756,-2.246 -10.268,-5.806 -1.109,-0.375 -2.198,-0.99 -3.166,-1.95 -5.782,-5.736 -6.938,-11.711 -6.938,-11.711 0,0 9.199,0.319 13.694,3.849 0.593,0.465 1.11,0.972 1.561,1.5 z"
   style="fill:#3e8241"
   id="path356" />
                    </g>
                    <g
   transform="matrix(0.363633,-1.32713,1.2087,0.391563,337.876,196.309)"
   id="g364">
                        <path
   d="m 59.347,408.402 c 3.435,-5.578 9.599,-9.301 16.626,-9.301 7.027,0 13.191,3.723 16.625,9.301 0.933,-0.182 1.897,-0.277 2.884,-0.277 8.277,0 14.998,6.72 14.998,14.997 0,8.278 -6.721,14.998 -14.998,14.998 -3.399,0 -6.535,-1.133 -9.051,-3.041 -3.022,1.925 -6.611,3.041 -10.458,3.041 -3.848,0 -7.436,-1.116 -10.459,-3.041 -2.516,1.908 -5.652,3.041 -9.051,3.041 -8.277,0 -14.997,-6.72 -14.997,-14.998 0,-8.277 6.72,-14.997 14.997,-14.997 0.987,0 1.951,0.095 2.884,0.277 z"
   style="fill:#ffffff"
   id="path360" />
                        <path
   d="m 70.856,434.784 c 1.052,-7.95 5.008,-12.436 5.008,-12.436 0,0 5.291,7.374 5.316,13.073 0.559,-0.758 1.239,-1.487 2.066,-2.137 4.495,-3.53 13.694,-3.849 13.694,-3.849 0,0 -1.156,5.975 -6.938,11.711 -1.186,1.177 -2.553,1.835 -3.919,2.168 -2.507,3.434 -6.109,5.588 -10.11,5.588 -4.086,0 -7.756,-2.246 -10.268,-5.806 -1.109,-0.375 -2.198,-0.99 -3.166,-1.95 -5.782,-5.736 -6.938,-11.711 -6.938,-11.711 0,0 9.199,0.319 13.694,3.849 0.593,0.465 1.11,0.972 1.561,1.5 z"
   style="fill:#3e8241"
   id="path362" />
                    </g>
                    <g
   transform="matrix(1.12421,-0.635657,0.573869,1.22904,547.664,-303.862)"
   id="g370">
                        <path
   d="m 59.347,408.402 c 3.435,-5.578 9.599,-9.301 16.626,-9.301 7.027,0 13.191,3.723 16.625,9.301 0.933,-0.182 1.897,-0.277 2.884,-0.277 8.277,0 14.998,6.72 14.998,14.997 0,8.278 -6.721,14.998 -14.998,14.998 -3.399,0 -6.535,-1.133 -9.051,-3.041 -3.022,1.925 -6.611,3.041 -10.458,3.041 -3.848,0 -7.436,-1.116 -10.459,-3.041 -2.516,1.908 -5.652,3.041 -9.051,3.041 -8.277,0 -14.997,-6.72 -14.997,-14.998 0,-8.277 6.72,-14.997 14.997,-14.997 0.987,0 1.951,0.095 2.884,0.277 z"
   style="fill:#ffffff"
   id="path366" />
                        <path
   d="m 70.856,434.784 c 1.052,-7.95 5.008,-12.436 5.008,-12.436 0,0 5.291,7.374 5.316,13.073 0.559,-0.758 1.239,-1.487 2.066,-2.137 4.495,-3.53 13.694,-3.849 13.694,-3.849 0,0 -1.156,5.975 -6.938,11.711 -1.186,1.177 -2.553,1.835 -3.919,2.168 -2.507,3.434 -6.109,5.588 -10.11,5.588 -4.086,0 -7.756,-2.246 -10.268,-5.806 -1.109,-0.375 -2.198,-0.99 -3.166,-1.95 -5.782,-5.736 -6.938,-11.711 -6.938,-11.711 0,0 9.199,0.319 13.694,3.849 0.593,0.465 1.11,0.972 1.561,1.5 z"
   style="fill:#3e8241"
   id="path368" />
                    </g>
                    <g
   transform="matrix(-0.181891,1.48011,-1.34922,-0.191512,1552.48,645.315)"
   id="g376">
                        <path
   d="m 59.347,408.402 c 3.435,-5.578 9.599,-9.301 16.626,-9.301 7.027,0 13.191,3.723 16.625,9.301 0.933,-0.182 1.897,-0.277 2.884,-0.277 8.277,0 14.998,6.72 14.998,14.997 0,8.278 -6.721,14.998 -14.998,14.998 -3.399,0 -6.535,-1.133 -9.051,-3.041 -3.022,1.925 -6.611,3.041 -10.458,3.041 -3.848,0 -7.436,-1.116 -10.459,-3.041 -2.516,1.908 -5.652,3.041 -9.051,3.041 -8.277,0 -14.997,-6.72 -14.997,-14.998 0,-8.277 6.72,-14.997 14.997,-14.997 0.987,0 1.951,0.095 2.884,0.277 z"
   style="fill:#ffffff"
   id="path372" />
                        <path
   d="m 70.856,434.784 c 1.052,-7.95 5.008,-12.436 5.008,-12.436 0,0 5.291,7.374 5.316,13.073 0.559,-0.758 1.239,-1.487 2.066,-2.137 4.495,-3.53 13.694,-3.849 13.694,-3.849 0,0 -1.156,5.975 -6.938,11.711 -1.186,1.177 -2.553,1.835 -3.919,2.168 -2.507,3.434 -6.109,5.588 -10.11,5.588 -4.086,0 -7.756,-2.246 -10.268,-5.806 -1.109,-0.375 -2.198,-0.99 -3.166,-1.95 -5.782,-5.736 -6.938,-11.711 -6.938,-11.711 0,0 9.199,0.319 13.694,3.849 0.593,0.465 1.11,0.972 1.561,1.5 z"
   style="fill:#3e8241"
   id="path374" />
                    </g>
                    <g
   transform="matrix(0.147074,1.48283,-1.35345,0.169133,1562.14,393.949)"
   id="g382">
                        <path
   d="m 59.347,408.402 c 3.435,-5.578 9.599,-9.301 16.626,-9.301 7.027,0 13.191,3.723 16.625,9.301 0.933,-0.182 1.897,-0.277 2.884,-0.277 8.277,0 14.998,6.72 14.998,14.997 0,8.278 -6.721,14.998 -14.998,14.998 -3.399,0 -6.535,-1.133 -9.051,-3.041 -3.022,1.925 -6.611,3.041 -10.458,3.041 -3.848,0 -7.436,-1.116 -10.459,-3.041 -2.516,1.908 -5.652,3.041 -9.051,3.041 -8.277,0 -14.997,-6.72 -14.997,-14.998 0,-8.277 6.72,-14.997 14.997,-14.997 0.987,0 1.951,0.095 2.884,0.277 z"
   style="fill:#ffffff"
   id="path378" />
                        <path
   d="m 70.856,434.784 c 1.052,-7.95 5.008,-12.436 5.008,-12.436 0,0 5.291,7.374 5.316,13.073 0.559,-0.758 1.239,-1.487 2.066,-2.137 4.495,-3.53 13.694,-3.849 13.694,-3.849 0,0 -1.156,5.975 -6.938,11.711 -1.186,1.177 -2.553,1.835 -3.919,2.168 -2.507,3.434 -6.109,5.588 -10.11,5.588 -4.086,0 -7.756,-2.246 -10.268,-5.806 -1.109,-0.375 -2.198,-0.99 -3.166,-1.95 -5.782,-5.736 -6.938,-11.711 -6.938,-11.711 0,0 9.199,0.319 13.694,3.849 0.593,0.465 1.11,0.972 1.561,1.5 z"
   style="fill:#3e8241"
   id="path380" />
                    </g>
                    <g
   transform="matrix(0.470901,1.39755,-1.27739,0.523676,1519.42,128.617)"
   id="g388">
                        <path
   d="m 59.347,408.402 c 3.435,-5.578 9.599,-9.301 16.626,-9.301 7.027,0 13.191,3.723 16.625,9.301 0.933,-0.182 1.897,-0.277 2.884,-0.277 8.277,0 14.998,6.72 14.998,14.997 0,8.278 -6.721,14.998 -14.998,14.998 -3.399,0 -6.535,-1.133 -9.051,-3.041 -3.022,1.925 -6.611,3.041 -10.458,3.041 -3.848,0 -7.436,-1.116 -10.459,-3.041 -2.516,1.908 -5.652,3.041 -9.051,3.041 -8.277,0 -14.997,-6.72 -14.997,-14.998 0,-8.277 6.72,-14.997 14.997,-14.997 0.987,0 1.951,0.095 2.884,0.277 z"
   style="fill:#ffffff"
   id="path384" />
                        <path
   d="m 70.856,434.784 c 1.052,-7.95 5.008,-12.436 5.008,-12.436 0,0 5.291,7.374 5.316,13.073 0.559,-0.758 1.239,-1.487 2.066,-2.137 4.495,-3.53 13.694,-3.849 13.694,-3.849 0,0 -1.156,5.975 -6.938,11.711 -1.186,1.177 -2.553,1.835 -3.919,2.168 -2.507,3.434 -6.109,5.588 -10.11,5.588 -4.086,0 -7.756,-2.246 -10.268,-5.806 -1.109,-0.375 -2.198,-0.99 -3.166,-1.95 -5.782,-5.736 -6.938,-11.711 -6.938,-11.711 0,0 9.199,0.319 13.694,3.849 0.593,0.465 1.11,0.972 1.561,1.5 z"
   style="fill:#3e8241"
   id="path386" />
                    </g>
                    <g
   transform="matrix(0.737994,1.24982,-1.14404,0.815692,1419.16,-95.8431)"
   id="g394">
                        <path
   d="m 59.347,408.402 c 3.435,-5.578 9.599,-9.301 16.626,-9.301 7.027,0 13.191,3.723 16.625,9.301 0.933,-0.182 1.897,-0.277 2.884,-0.277 8.277,0 14.998,6.72 14.998,14.997 0,8.278 -6.721,14.998 -14.998,14.998 -3.399,0 -6.535,-1.133 -9.051,-3.041 -3.022,1.925 -6.611,3.041 -10.458,3.041 -3.848,0 -7.436,-1.116 -10.459,-3.041 -2.516,1.908 -5.652,3.041 -9.051,3.041 -8.277,0 -14.997,-6.72 -14.997,-14.998 0,-8.277 6.72,-14.997 14.997,-14.997 0.987,0 1.951,0.095 2.884,0.277 z"
   style="fill:#ffffff"
   id="path390" />
                        <path
   d="m 70.856,434.784 c 1.052,-7.95 5.008,-12.436 5.008,-12.436 0,0 5.291,7.374 5.316,13.073 0.559,-0.758 1.239,-1.487 2.066,-2.137 4.495,-3.53 13.694,-3.849 13.694,-3.849 0,0 -1.156,5.975 -6.938,11.711 -1.186,1.177 -2.553,1.835 -3.919,2.168 -2.507,3.434 -6.109,5.588 -10.11,5.588 -4.086,0 -7.756,-2.246 -10.268,-5.806 -1.109,-0.375 -2.198,-0.99 -3.166,-1.95 -5.782,-5.736 -6.938,-11.711 -6.938,-11.711 0,0 9.199,0.319 13.694,3.849 0.593,0.465 1.11,0.972 1.561,1.5 z"
   style="fill:#3e8241"
   id="path392" />
                    </g>
                    <g
   transform="matrix(0.94369,1.07019,-0.981283,1.04023,1293.98,-284.543)"
   id="g400">
                        <path
   d="m 59.347,408.402 c 3.435,-5.578 9.599,-9.301 16.626,-9.301 7.027,0 13.191,3.723 16.625,9.301 0.933,-0.182 1.897,-0.277 2.884,-0.277 8.277,0 14.998,6.72 14.998,14.997 0,8.278 -6.721,14.998 -14.998,14.998 -3.399,0 -6.535,-1.133 -9.051,-3.041 -3.022,1.925 -6.611,3.041 -10.458,3.041 -3.848,0 -7.436,-1.116 -10.459,-3.041 -2.516,1.908 -5.652,3.041 -9.051,3.041 -8.277,0 -14.997,-6.72 -14.997,-14.998 0,-8.277 6.72,-14.997 14.997,-14.997 0.987,0 1.951,0.095 2.884,0.277 z"
   style="fill:#ffffff"
   id="path396" />
                        <path
   d="m 70.856,434.784 c 1.052,-7.95 5.008,-12.436 5.008,-12.436 0,0 5.291,7.374 5.316,13.073 0.559,-0.758 1.239,-1.487 2.066,-2.137 4.495,-3.53 13.694,-3.849 13.694,-3.849 0,0 -1.156,5.975 -6.938,11.711 -1.186,1.177 -2.553,1.835 -3.919,2.168 -2.507,3.434 -6.109,5.588 -10.11,5.588 -4.086,0 -7.756,-2.246 -10.268,-5.806 -1.109,-0.375 -2.198,-0.99 -3.166,-1.95 -5.782,-5.736 -6.938,-11.711 -6.938,-11.711 0,0 9.199,0.319 13.694,3.849 0.593,0.465 1.11,0.972 1.561,1.5 z"
   style="fill:#3e8241"
   id="path398" />
                    </g>
                    <g
   transform="matrix(2.51429,0,0,2.51106,-109.925,-117.184)"
   id="g404">
                        <path
   d="m 282.441,459.969 c 0,0 -2.104,-39.444 -46.207,-47.717 -57.812,-10.843 -94.279,-28.113 -128.874,-86.993 -1.067,-1.815 -3.407,-2.423 -5.222,-1.357 -1.816,1.067 -2.424,3.407 -1.357,5.222 36.002,61.274 73.884,79.343 134.046,90.628 37.87,7.103 39.997,40.659 39.997,40.659 0.122,2.102 1.927,3.709 4.029,3.587 2.102,-0.121 3.71,-1.927 3.588,-4.029 z"
   style="fill:#f7f50d"
   id="path402" />
                    </g>
                    <g
   transform="matrix(-2.51429,0,0,2.51106,1164.61,-117.184)"
   id="g408">
                        <path
   d="m 274.824,460.411 c 0,0 -2.127,-33.556 -39.997,-40.659 -60.214,-11.295 -110.328,-43.337 -138.248,-95.626 -0.991,-1.857 -0.288,-4.17 1.569,-5.162 1.857,-0.992 4.17,-0.289 5.162,1.568 26.782,50.159 75.163,80.886 132.924,91.72 44.103,8.273 46.207,47.717 46.207,47.717 0.122,2.102 -1.486,3.908 -3.588,4.029 -2.102,0.122 -3.907,-1.485 -4.029,-3.587 z"
   style="fill:#3e8241"
   id="path406" />
                    </g>
                    <g
   transform="matrix(1.32833,-0.414646,0.41518,1.32663,-107.76,181.367)"
   id="g418">
                        <g
   transform="matrix(1.06526,-0.108399,0.101236,0.994862,-48.2629,23.7365)"
   id="g412">
                            <path
   d="m 59.887,382.67 c 0,0 -25.845,-11.192 -25.913,-36.884 -0.064,-24.139 -1.687,-32.242 -1.687,-32.242 11.673,-0.743 38.039,26.203 27.6,69.126 z"
   style="fill:#f7f50d"
   id="path410" />
                        </g>
                        <g
   transform="matrix(-1.06526,-0.108399,-0.101236,0.994862,161.074,23.7365)"
   id="g416">
                            <path
   d="m 59.887,382.67 c 0,0 -25.845,-11.192 -25.913,-36.884 -0.064,-24.139 -1.687,-32.242 -1.687,-32.242 11.673,-0.743 38.039,26.203 27.6,69.126 z"
   style="fill:#f7f50d"
   id="path414" />
                        </g>
                    </g>
                    <g
   transform="matrix(1.35534,-0.315648,0.316055,1.3536,-97.1678,86.9112)"
   id="g428">
                        <g
   transform="matrix(1.06526,-0.108399,0.101236,0.994862,-48.2629,23.7365)"
   id="g422">
                            <path
   d="m 59.887,382.67 c 0,0 -25.845,-11.192 -25.913,-36.884 -0.064,-24.139 -1.687,-32.242 -1.687,-32.242 11.673,-0.743 38.039,26.203 27.6,69.126 z"
   style="fill:#f7f50d"
   id="path420" />
                        </g>
                        <g
   transform="matrix(-1.06526,-0.108399,-0.101236,0.994862,161.074,23.7365)"
   id="g426">
                            <path
   d="m 59.887,382.67 c 0,0 -25.845,-11.192 -25.913,-36.884 -0.064,-24.139 -1.687,-32.242 -1.687,-32.242 11.673,-0.743 38.039,26.203 27.6,69.126 z"
   style="fill:#f7f50d"
   id="path424" />
                        </g>
                    </g>
                    <g
   transform="matrix(1.39171,9.81268e-4,-9.82531e-4,1.38992,11.017,-37.1909)"
   id="g438">
                        <g
   transform="matrix(1.06526,-0.108399,0.101236,0.994862,-48.2629,23.7365)"
   id="g432">
                            <path
   d="m 59.887,382.67 c 0,0 -25.845,-11.192 -25.913,-36.884 -0.064,-24.139 -1.687,-32.242 -1.687,-32.242 11.673,-0.743 38.039,26.203 27.6,69.126 z"
   style="fill:#f7f50d"
   id="path430" />
                        </g>
                        <g
   transform="matrix(-1.06526,-0.108399,-0.101236,0.994862,161.074,23.7365)"
   id="g436">
                            <path
   d="m 59.887,382.67 c 0,0 -25.845,-11.192 -25.913,-36.884 -0.064,-24.139 -1.687,-32.242 -1.687,-32.242 11.673,-0.743 38.039,26.203 27.6,69.126 z"
   style="fill:#f7f50d"
   id="path434" />
                        </g>
                    </g>
                    <g
   transform="matrix(1.30494,0.483079,-0.4837,1.30327,211.088,-125.568)"
   id="g448">
                        <g
   transform="matrix(1.06526,-0.108399,0.101236,0.994862,-48.2629,23.7365)"
   id="g442">
                            <path
   d="m 59.887,382.67 c 0,0 -25.845,-11.192 -25.913,-36.884 -0.064,-24.139 -1.687,-32.242 -1.687,-32.242 11.673,-0.743 38.039,26.203 27.6,69.126 z"
   style="fill:#f7f50d"
   id="path440" />
                        </g>
                        <g
   transform="matrix(-1.06526,-0.108399,-0.101236,0.994862,161.074,23.7365)"
   id="g446">
                            <path
   d="m 59.887,382.67 c 0,0 -25.845,-11.192 -25.913,-36.884 -0.064,-24.139 -1.687,-32.242 -1.687,-32.242 11.673,-0.743 38.039,26.203 27.6,69.126 z"
   style="fill:#f7f50d"
   id="path444" />
                        </g>
                    </g>
                    <g
   transform="matrix(1.26752,0.573932,-0.57467,1.26589,282.817,-205.489)"
   id="g458">
                        <g
   transform="matrix(1.06526,-0.108399,0.101236,0.994862,-48.2629,23.7365)"
   id="g452">
                            <path
   d="m 59.887,382.67 c 0,0 -25.845,-11.192 -25.913,-36.884 -0.064,-24.139 -1.687,-32.242 -1.687,-32.242 11.673,-0.743 38.039,26.203 27.6,69.126 z"
   style="fill:#f7f50d"
   id="path450" />
                        </g>
                        <g
   transform="matrix(-1.06526,-0.108399,-0.101236,0.994862,161.074,23.7365)"
   id="g456">
                            <path
   d="m 59.887,382.67 c 0,0 -25.845,-11.192 -25.913,-36.884 -0.064,-24.139 -1.687,-32.242 -1.687,-32.242 11.673,-0.743 38.039,26.203 27.6,69.126 z"
   style="fill:#f7f50d"
   id="path454" />
                        </g>
                    </g>
                    <g
   transform="matrix(1.13055,0.810556,-0.811599,1.1291,427.923,-245.981)"
   id="g468">
                        <g
   transform="matrix(1.06526,-0.108399,0.101236,0.994862,-48.2629,23.7365)"
   id="g462">
                            <path
   d="m 59.887,382.67 c 0,0 -25.845,-11.192 -25.913,-36.884 -0.064,-24.139 -1.687,-32.242 -1.687,-32.242 11.673,-0.743 38.039,26.203 27.6,69.126 z"
   style="fill:#f7f50d"
   id="path460" />
                        </g>
                        <g
   transform="matrix(-1.06526,-0.108399,-0.101236,0.994862,161.074,23.7365)"
   id="g466">
                            <path
   d="m 59.887,382.67 c 0,0 -25.845,-11.192 -25.913,-36.884 -0.064,-24.139 -1.687,-32.242 -1.687,-32.242 11.673,-0.743 38.039,26.203 27.6,69.126 z"
   style="fill:#f7f50d"
   id="path464" />
                        </g>
                    </g>
                    <g
   transform="matrix(2.51057,-0.13658,0.136756,2.50734,-127.147,-92.7559)"
   id="g472">
                        <path
   d="m 126.823,121.985 c 0,0 -1.389,-9.59 9.569,-18.405 10.959,-8.816 24.387,-11.723 24.387,-11.723 0,0 -10.187,34.813 -33.956,30.128 z"
   style="fill:#f7f50d"
   id="path470" />
                    </g>
                    <g
   transform="matrix(2.51429,0,0,2.51106,-109.925,-112.162)"
   id="g476">
                        <path
   d="m 360.176,386.438 c -73.282,47.493 -145.16,46.934 -215.685,0 l -16.034,23.488 c 82.148,48.574 163.959,49.297 245.417,0 z"
   style="fill:#08a659"
   id="path474" />
                    </g>
                    <g
   transform="matrix(0.822244,-0.0237534,0.022321,0.770675,589.613,869.22)"
   id="g499">
                        <g
   id="g9062"
   serif:id="g906">
                            <g
   id="text8353"
   serif:id="text835">
                                <path
   id="path856"
   d="m 78.274,118.753 0.747,-0.329 c 2.648,-1.169 3.664,-4.011 3.05,-8.526 -0.217,-1.472 0.016,-3.211 0.699,-5.216 0.846,-1.942 1.982,-3.227 3.408,-3.857 1.946,-0.859 4.046,-0.421 6.299,1.316 2.266,1.703 4.256,4.096 5.969,7.18 0.61,3.219 0.055,5.208 -1.665,5.967 -3.1,1.369 -7.05,1.517 -11.85,0.445 l -0.237,0.105 c 0.438,3.322 -0.87,5.657 -3.925,7.005 l -0.577,0.255 c -0.837,0.37 -1.536,0.408 -2.098,0.116 -0.595,-0.306 -1.022,-0.753 -1.282,-1.341 -0.229,-0.521 -0.247,-1.081 -0.052,-1.68 0.195,-0.6 0.7,-1.08 1.514,-1.44 z m 5.713,-8.281 c 1.505,0.958 3.61,1.408 6.315,1.349 1.851,-0.033 3.342,-0.299 4.474,-0.799 0.611,-0.269 0.918,-0.554 0.921,-0.853 -1.554,-2.234 -3.092,-3.758 -4.615,-4.573 -1.522,-0.815 -2.861,-0.968 -4.015,-0.459 -2.059,0.909 -3.086,2.688 -3.08,5.335 z"
   style="fill:#1b1b1b;fill-rule:nonzero" />
                                <path
   id="path858"
   d="m 75.419,119.8 3.091,-1.162 1.671,4.446 -2.883,1.083 c 0.677,2.362 0.659,5.091 -0.054,8.187 -0.574,2.409 -1.461,4.407 -2.661,5.995 -1.191,1.61 -2.32,2.616 -3.385,3.016 -2.871,1.08 -6.645,1.164 -11.321,0.253 l 0.159,-1.368 c 1.865,0.25 3.724,0.027 5.576,-0.669 3.288,-1.236 5.906,-4.044 7.853,-8.423 1.11,-2.531 1.589,-4.561 1.437,-6.09 l -1.771,0.666 c -7.085,2.664 -11.52,1.623 -13.305,-3.124 -0.774,-2.061 -0.885,-4.147 -0.331,-6.258 0.693,-2.797 2.058,-4.579 4.095,-5.345 1.644,-0.618 3.584,-0.132 5.821,1.459 2.236,1.59 4.239,4.035 6.008,7.334 z m -2.362,0.888 c -1.168,-1.913 -2.614,-3.298 -4.338,-4.157 -1.645,-0.861 -3.116,-1.048 -4.412,-0.561 -0.95,0.357 -1.715,1.028 -2.296,2.013 -0.59,0.962 -0.75,1.802 -0.48,2.519 0.583,1.552 2.272,2.212 5.065,1.981 1.529,-0.152 3.683,-0.75 6.461,-1.795 z m -9.835,-19.73 0.039,0.105 c -0.101,1.068 -0.256,2.025 -0.467,2.871 -3.18,1.803 -5.864,3.803 -8.051,5.999 l -0.108,-0.078 0.285,-1.772 c 0.231,-0.721 0.62,-1.303 1.167,-1.747 l -0.04,-0.104 c -2.006,0.147 -3.288,-0.521 -3.845,-2.003 -0.357,-0.949 -0.195,-2.173 0.484,-3.67 0.985,-1.877 2.138,-3.063 3.458,-3.56 0.671,-0.252 1.269,-0.279 1.793,-0.079 0.516,0.176 0.861,0.496 1.035,0.959 0.235,0.625 0.147,1.517 -0.263,2.675 l -0.069,0.026 c -0.722,-0.654 -1.262,-0.966 -1.621,-0.937 -0.281,0.027 -0.653,0.127 -1.116,0.301 -0.579,0.218 -1.082,0.565 -1.51,1.044 -0.414,0.446 -0.568,0.808 -0.464,1.086 0.191,0.509 0.635,0.844 1.33,1.006 0.709,0.13 1.437,0.133 2.184,0.011 0.761,-0.154 1.524,-0.375 2.288,-0.662 0.787,-0.296 1.951,-0.786 3.491,-1.471 z"
   style="fill:#1b1b1b;fill-rule:nonzero" />
                                <path
   id="path860"
   d="m 49.653,117.418 0.246,0.042 c 1.092,2.255 1.917,4.306 2.473,6.153 0.479,1.587 0.541,3.338 0.188,5.253 -0.778,3.076 -2.139,4.907 -4.081,5.492 -1.563,0.471 -3.339,-0.066 -5.329,-1.611 l -0.284,0.085 c -1.258,2.601 -3.023,4.244 -5.297,4.929 -2.061,0.621 -3.501,-0.043 -4.32,-1.992 l -0.142,0.043 c -1.123,2.534 -3.342,4.3 -6.658,5.299 l -0.604,0.182 c -0.876,0.264 -1.575,0.216 -2.097,-0.143 -0.552,-0.376 -0.921,-0.872 -1.107,-1.488 -0.164,-0.545 -0.113,-1.103 0.154,-1.674 0.268,-0.571 0.827,-0.985 1.68,-1.242 l 1.208,-0.364 c 3.467,-1.097 5.634,-2.951 6.501,-5.563 l 1.108,-3.395 2.447,-1.784 0.195,0.135 c -0.832,3.067 -1.124,5.015 -0.874,5.844 0.164,0.545 0.462,0.933 0.893,1.165 0.448,0.201 0.945,0.219 1.489,0.055 1.137,-0.343 2.088,-1.004 2.852,-1.983 0.114,-0.138 0.203,-0.268 0.27,-0.391 0.082,-0.154 0.15,-0.317 0.202,-0.487 0.075,-0.178 0.134,-0.325 0.177,-0.441 0.035,-0.14 0.068,-0.331 0.099,-0.573 0.023,-0.265 0.041,-0.464 0.052,-0.597 0.005,-0.156 0.004,-0.414 -10e-4,-0.775 0.019,-0.367 0.023,-0.652 0.014,-0.856 0.013,-0.211 0.012,-0.559 -0.005,-1.045 -10e-4,-0.516 0.003,-0.931 0.012,-1.244 l 1.757,-1.886 0.256,0.078 c 0.064,1.325 0.259,2.532 0.588,3.621 0.378,1.255 1.056,2.136 2.036,2.642 0.979,0.506 1.942,0.616 2.889,0.331 0.521,-0.157 0.917,-0.432 1.186,-0.823 0.294,-0.398 0.365,-0.846 0.216,-1.343 -0.35,-1.161 -1.224,-2.99 -2.623,-5.488 0.645,-1.46 1.39,-2.847 2.234,-4.161 z"
   style="fill:#1b1b1b;fill-rule:nonzero" />
                                <path
   id="path862"
   d="m 24.881,136.761 0.97,4.649 -0.908,0.19 c -3.971,0.829 -6.703,0.211 -8.195,-1.853 l -0.217,0.046 c -1.463,2.68 -3.295,4.25 -5.499,4.71 -2.179,0.455 -3.709,-0.275 -4.588,-2.188 l -0.146,0.03 c -1.42,2.394 -3.305,3.836 -5.654,4.326 -2.107,0.44 -3.484,-0.347 -4.131,-2.36 l -0.146,0.031 c -1.338,2.427 -3.702,3.994 -7.092,4.702 l -0.617,0.128 c -0.896,0.187 -1.589,0.079 -2.077,-0.324 -0.518,-0.423 -0.842,-0.949 -0.974,-1.578 -0.116,-0.557 -0.016,-1.109 0.299,-1.655 0.316,-0.546 0.91,-0.91 1.781,-1.092 l 1.235,-0.257 c 3.477,-0.777 5.797,-2.436 6.959,-4.978 l 1.225,-3.212 2.592,-1.564 0.183,0.151 c -1.002,3.065 -1.428,4.96 -1.276,5.687 0.116,0.557 0.391,0.967 0.825,1.23 0.429,0.239 0.934,0.298 1.515,0.177 1.162,-0.243 2.14,-0.826 2.933,-1.75 0.802,-0.875 1.367,-2.104 1.693,-3.689 l 0.425,-2.325 2.495,-1.847 0.176,0.115 c -0.468,2.726 -0.585,4.645 -0.353,5.759 0.117,0.557 0.39,1.018 0.82,1.383 0.449,0.336 1,0.436 1.654,0.299 0.872,-0.182 1.652,-0.622 2.34,-1.322 0.788,-0.821 1.248,-2.13 1.379,-3.926 -10e-4,-0.126 0.007,-0.33 0.024,-0.612 0.036,-0.311 0.062,-0.67 0.078,-1.077 0.016,-0.408 0.024,-0.852 0.025,-1.332 l 2.374,-2.429 0.168,0.079 c -0.176,2.184 -0.132,3.906 0.131,5.165 0.545,2.616 2.804,3.509 6.775,2.68 z"
   style="fill:#1b1b1b;fill-rule:nonzero" />
                                <path
   id="path864"
   d="m -20.47,144.886 c -2.319,1.386 -4.682,2.23 -7.087,2.531 -2.013,0.252 -3.677,0.098 -4.994,-0.46 -1.319,-0.583 -2.068,-1.586 -2.246,-3.01 -0.144,-1.153 0.069,-2.638 0.64,-4.455 1.092,-3.427 4.597,-7.293 10.515,-11.598 l -0.566,-2.733 c 0.902,-1.36 1.746,-2.487 2.531,-3.383 l 0.405,-0.051 c 0.574,3.792 1.363,9.502 2.367,17.13 0.331,2.65 1.014,4.323 2.048,5.016 0.816,0.546 2.145,0.704 3.985,0.474 l 0.884,-0.111 0.589,4.713 -0.81,0.101 c -1.963,0.246 -3.603,0.089 -4.919,-0.469 -1.32,-0.583 -2.434,-1.815 -3.342,-3.695 z m -1.081,-3.866 -1.322,-9.071 c -6.222,4.268 -9.212,7.371 -8.969,9.311 0.086,0.687 0.592,1.147 1.519,1.38 0.951,0.23 2.101,0.261 3.451,0.092 1.498,-0.187 3.271,-0.758 5.321,-1.712 z m 2.125,-26.666 c -0.869,1.629 -1.66,2.875 -2.375,3.737 -1.62,-1.193 -3.216,-2.29 -4.787,-3.29 0.749,-1.39 1.573,-2.677 2.472,-3.861 1.43,0.868 2.993,2.006 4.69,3.414 z m -7.046,1.367 c -0.869,1.63 -1.66,2.875 -2.375,3.738 -1.62,-1.194 -3.216,-2.291 -4.787,-3.291 0.749,-1.39 1.573,-2.677 2.472,-3.861 1.43,0.868 2.993,2.006 4.69,3.414 z"
   style="fill:#1b1b1b;fill-rule:nonzero" />
                                <path
   id="path866"
   d="m -55.931,137.404 0.224,0.111 c 0.408,2.471 0.617,4.672 0.626,6.601 0.008,1.657 -0.428,3.354 -1.31,5.09 -1.619,2.729 -3.443,4.099 -5.471,4.109 -1.633,0.008 -3.184,-1.011 -4.654,-3.057 l -0.296,10e-4 c -1.944,2.137 -4.103,3.212 -6.478,3.224 -2.152,0.01 -3.344,-1.035 -3.577,-3.136 h -0.149 c -1.795,2.112 -4.424,3.176 -7.887,3.194 l -0.631,0.003 c -0.915,0.004 -1.572,-0.24 -1.97,-0.733 -0.423,-0.517 -0.637,-1.097 -0.64,-1.74 -0.003,-0.569 0.205,-1.09 0.623,-1.562 0.418,-0.472 1.073,-0.71 1.963,-0.715 l 1.262,-0.006 c 3.636,-0.067 6.24,-1.231 7.812,-3.489 l 2.026,-2.942 2.852,-1.016 0.149,0.185 c -1.669,2.704 -2.501,4.49 -2.496,5.355 0.002,0.569 0.178,1.026 0.526,1.371 0.372,0.319 0.843,0.478 1.412,0.475 1.188,-0.006 2.287,-0.37 3.297,-1.092 0.148,-0.1 0.271,-0.2 0.37,-0.299 0.123,-0.124 0.233,-0.261 0.332,-0.41 0.123,-0.149 0.221,-0.273 0.295,-0.372 0.073,-0.125 0.159,-0.298 0.257,-0.521 0.097,-0.248 0.171,-0.434 0.22,-0.558 0.048,-0.149 0.121,-0.396 0.218,-0.743 0.122,-0.347 0.208,-0.62 0.256,-0.818 0.073,-0.198 0.171,-0.532 0.292,-1.003 0.146,-0.495 0.268,-0.892 0.365,-1.189 l 2.22,-1.31 0.223,0.147 c -0.315,1.288 -0.47,2.501 -0.464,3.639 0.007,1.311 0.407,2.348 1.203,3.111 0.795,0.763 1.688,1.142 2.677,1.137 0.544,-0.003 1.001,-0.154 1.371,-0.452 0.394,-0.299 0.59,-0.708 0.587,-1.228 -0.006,-1.212 -0.325,-3.214 -0.957,-6.006 1.033,-1.217 2.14,-2.336 3.322,-3.356 z"
   style="fill:#1b1b1b;fill-rule:nonzero" />
                                <path
   id="path868"
   d="m -109.632,146.875 0.63,0.045 c 1.357,0.096 3.364,-0.058 6.022,-0.464 -0.76,-1.517 -1.058,-3.423 -0.895,-5.718 0.248,-3.479 1.565,-6.299 3.951,-8.46 1.01,-0.945 2.056,-1.701 3.138,-2.268 1.107,-0.566 2.005,-0.825 2.696,-0.775 0.667,0.047 1.357,0.456 2.07,1.226 0.739,0.772 1.395,1.835 1.968,3.191 0.809,1.868 1.153,3.653 1.031,5.355 -0.205,2.887 -1.237,5.703 -3.094,8.447 1.498,0.553 3.407,0.912 5.726,1.078 l 1.184,0.084 -0.337,4.738 -1.074,-0.077 c -3.602,-0.257 -7.58,-1.334 -11.933,-3.231 -4.579,1.26 -8.163,1.798 -10.754,1.614 l -0.666,-0.048 c -0.913,-0.065 -1.55,-0.358 -1.909,-0.88 -0.383,-0.548 -0.551,-1.143 -0.505,-1.784 0.04,-0.568 0.287,-1.071 0.74,-1.51 0.453,-0.439 1.123,-0.627 2.011,-0.563 z m 12.214,-1.213 c 1.327,-0.178 2.666,-0.702 4.018,-1.573 1.378,-0.894 2.093,-1.711 2.146,-2.451 0.074,-1.036 -0.143,-2.168 -0.651,-3.394 -0.977,-2.302 -2.119,-3.499 -3.426,-3.592 -1.358,-0.097 -2.713,0.476 -4.066,1.718 -1.352,1.218 -2.265,2.554 -2.741,4.008 0.418,2.485 1.991,4.247 4.72,5.284 z m -1.191,-25.566 c 1.324,-1.517 2.413,-2.704 3.267,-3.561 1.403,1.191 2.79,2.617 4.159,4.277 -0.964,1.345 -2.074,2.481 -3.33,3.408 -0.621,-0.689 -1.986,-2.064 -4.096,-4.124 z"
   style="fill:#1b1b1b;fill-rule:nonzero" />
                                <path
   id="path870"
   d="m -120.201,161.718 c -1.241,1.367 -2.314,2.381 -3.218,3.042 -1.278,-1.555 -2.557,-3.009 -3.835,-4.363 1.067,-1.165 2.181,-2.211 3.343,-3.139 1.173,1.193 2.41,2.679 3.71,4.46 z m 7.166,0.401 c -1.241,1.367 -2.314,2.381 -3.218,3.042 -1.278,-1.554 -2.556,-3.009 -3.834,-4.363 1.066,-1.164 2.18,-2.21 3.342,-3.138 1.173,1.192 2.41,2.678 3.71,4.459 z m -12.953,-17.381 0.81,0.1 c 1.498,0.186 2.895,0.072 4.192,-0.34 1.301,-0.438 2.148,-1.143 2.543,-2.116 l 1.56,-3.845 2.769,-1.526 0.189,0.285 c -0.783,1.897 -1.23,3.287 -1.339,4.171 -0.173,1.399 0.106,2.468 0.837,3.207 1.081,1.131 2.542,1.81 4.384,2.038 l 0.662,0.082 -0.583,4.714 -0.847,-0.105 c -3.928,-0.486 -6.301,-2.052 -7.121,-4.695 l -0.147,-0.019 c -0.763,1.127 -1.848,1.94 -3.255,2.439 -1.405,0.474 -2.918,0.611 -4.538,0.41 l -0.699,-0.086 c -0.909,-0.113 -1.529,-0.439 -1.861,-0.978 -0.353,-0.568 -0.491,-1.17 -0.412,-1.809 0.07,-0.564 0.343,-1.054 0.818,-1.469 0.475,-0.414 1.154,-0.567 2.038,-0.458 z"
   style="fill:#1b1b1b;fill-rule:nonzero" />
                                <path
   id="path872"
   d="m -135.051,124.349 c 1.459,-1.388 2.653,-2.469 3.584,-3.242 1.286,1.316 2.534,2.865 3.743,4.645 -1.084,1.249 -2.295,2.277 -3.633,3.083 -0.553,-0.743 -1.785,-2.239 -3.694,-4.486 z m -7.256,17.678 0.805,0.133 c 1.489,0.247 2.89,0.191 4.203,-0.168 1.317,-0.383 2.193,-1.053 2.627,-2.009 l 1.717,-3.778 2.83,-1.411 0.177,0.293 c -0.861,1.863 -1.364,3.234 -1.51,4.112 -0.23,1.391 0.005,2.471 0.705,3.239 1.034,1.174 2.466,1.913 4.296,2.216 l 0.659,0.11 -0.777,4.685 -0.842,-0.14 c -3.904,-0.647 -6.211,-2.308 -6.921,-4.983 l -0.147,-0.025 c -0.808,1.095 -1.926,1.863 -3.353,2.303 -1.423,0.416 -2.939,0.491 -4.55,0.224 l -0.696,-0.116 c -0.903,-0.149 -1.509,-0.501 -1.818,-1.054 -0.33,-0.581 -0.443,-1.189 -0.337,-1.823 0.093,-0.561 0.385,-1.039 0.877,-1.434 0.492,-0.395 1.177,-0.52 2.055,-0.374 z"
   style="fill:#1b1b1b;fill-rule:nonzero" />
                                <path
   id="path874"
   d="m -150.309,139.969 c -2.649,0.535 -5.158,0.544 -7.526,0.026 -1.982,-0.433 -3.5,-1.132 -4.555,-2.097 -1.05,-0.989 -1.421,-2.185 -1.115,-3.586 0.248,-1.136 0.944,-2.465 2.087,-3.988 2.172,-2.867 6.764,-5.345 13.779,-7.432 l 0.377,-2.767 c 1.303,-0.981 2.474,-1.763 3.513,-2.346 l 0.399,0.087 c -0.722,3.767 -1.881,9.414 -3.475,16.94 -0.571,2.61 -0.484,4.414 0.26,5.412 0.587,0.787 1.787,1.378 3.6,1.774 l 0.87,0.19 -1.015,4.64 -0.797,-0.174 c -1.933,-0.423 -3.428,-1.116 -4.483,-2.081 -1.049,-0.99 -1.689,-2.522 -1.919,-4.598 z m 0.268,-4.005 1.776,-8.993 c -7.289,1.951 -11.142,3.882 -11.559,5.791 -0.148,0.676 0.176,1.279 0.972,1.807 0.82,0.534 1.895,0.946 3.224,1.237 1.474,0.322 3.337,0.375 5.587,0.158 z m 10.887,-24.435 c -1.362,1.247 -2.523,2.158 -3.484,2.733 -1.13,-1.665 -2.269,-3.231 -3.417,-4.697 1.169,-1.061 2.374,-2 3.616,-2.818 1.059,1.295 2.154,2.889 3.285,4.782 z m -7.099,-1.058 c -1.362,1.247 -2.523,2.158 -3.484,2.733 -1.13,-1.665 -2.269,-3.231 -3.417,-4.697 1.169,-1.061 2.374,-2.001 3.616,-2.818 1.059,1.295 2.154,2.889 3.285,4.782 z"
   style="fill:#1b1b1b;fill-rule:nonzero" />
                                <path
   id="path876"
   d="m -189.93,136.039 -0.387,-0.388 c 0.753,-1.556 1.598,-3.885 2.533,-6.987 l 1.05,-3.482 c 1.664,-5.518 3.459,-13.012 5.385,-22.481 1.511,-1.069 3.05,-1.974 4.617,-2.716 l 0.288,0.203 c -1.313,6.58 -3.519,15.009 -6.619,25.287 -0.736,2.44 -1.408,4.369 -2.016,5.787 -0.333,0.933 -0.865,1.754 -1.596,2.464 -0.724,0.686 -1.809,1.457 -3.255,2.313 z"
   style="fill:#1b1b1b;fill-rule:nonzero" />
                                <path
   id="path878"
   d="m -206.061,124.869 0.774,0.258 c 1.455,0.486 2.874,0.607 4.259,0.365 1.479,-0.289 2.523,-1.348 3.134,-3.178 1.629,-5.116 3.321,-11.318 5.075,-18.608 0.666,-2.777 1.038,-4.282 1.116,-4.517 0.267,-0.798 0.881,-1.466 1.843,-2.006 0.697,-0.445 1.557,-0.875 2.582,-1.289 l 0.188,0.258 c -0.775,2.088 -0.722,5.092 0.161,9.011 -0.829,0.375 -1.768,0.727 -2.816,1.055 -0.126,0.454 -0.631,2.241 -1.516,5.362 -0.885,3.121 -1.586,5.455 -2.103,7.004 -1.315,3.942 -2.767,6.73 -4.356,8.364 -1.565,1.799 -3.086,2.804 -4.565,3.014 -1.596,0.25 -3.18,0.113 -4.752,-0.412 l -0.528,-0.176 c -0.868,-0.29 -1.411,-0.732 -1.63,-1.327 -0.235,-0.625 -0.25,-1.243 -0.047,-1.853 0.181,-0.54 0.544,-0.966 1.092,-1.279 0.548,-0.313 1.244,-0.328 2.089,-0.046 z"
   style="fill:#1b1b1b;fill-rule:nonzero" />
                                <path
   id="path880"
   d="m -211.099,103.137 c 1.697,-1.084 3.076,-1.917 4.137,-2.499 1.011,1.538 1.94,3.296 2.787,5.275 -1.303,1.019 -2.688,1.797 -4.155,2.333 -0.401,-0.836 -1.324,-2.539 -2.769,-5.109 z m -10.498,15.966 0.765,0.285 c 1.414,0.527 2.799,0.739 4.157,0.638 1.366,-0.125 2.354,-0.615 2.963,-1.471 l 2.406,-3.38 3.047,-0.845 0.118,0.321 c -1.2,1.665 -1.956,2.914 -2.267,3.749 -0.492,1.321 -0.467,2.426 0.073,3.313 0.791,1.35 2.055,2.349 3.794,2.996 l 0.626,0.233 -1.657,4.451 -0.8,-0.297 c -3.709,-1.381 -5.657,-3.453 -5.843,-6.214 l -0.139,-0.052 c -1.002,0.92 -2.246,1.46 -3.731,1.62 -1.476,0.136 -2.979,-0.08 -4.509,-0.65 l -0.661,-0.246 c -0.857,-0.319 -1.385,-0.78 -1.584,-1.381 -0.212,-0.634 -0.207,-1.252 0.018,-1.855 0.198,-0.533 0.577,-0.946 1.135,-1.24 0.558,-0.294 1.254,-0.285 2.089,0.025 z"
   style="fill:#1b1b1b;fill-rule:nonzero" />
                                <path
   id="path882"
   d="m -229.634,108.513 0.093,-0.121 c -3.588,-3.46 -6.799,-5.811 -9.632,-7.05 -1.881,-0.823 -3.568,-0.887 -5.061,-0.19 l -0.335,1.878 -2.359,2.613 -0.34,-0.149 0.298,-5.215 c 0.949,-1.799 2.347,-2.956 4.192,-3.472 1.846,-0.515 3.8,-0.321 5.862,0.581 2.538,1.111 5.828,3.712 9.87,7.803 1.554,1.571 3.327,2.792 5.322,3.665 l 2.957,1.294 0.038,0.098 -3.64,2.579 c -2.47,-1.081 -4.573,-1.488 -6.309,-1.222 l -7.299,1.22 c -6.065,0.964 -11.703,0.306 -16.915,-1.975 l -1.564,-0.684 c -0.839,-0.367 -1.34,-0.857 -1.504,-1.469 -0.177,-0.644 -0.137,-1.261 0.121,-1.85 0.228,-0.521 0.629,-0.913 1.203,-1.175 0.574,-0.262 1.268,-0.214 2.084,0.143 l 2.074,0.907 c 5.28,2.311 12.228,2.908 20.844,1.791 z m 1.308,4.137 1.581,-0.28 0.087,0.078 c -1.037,2.679 0.393,4.871 4.291,6.576 l 0.918,0.402 -1.904,4.351 -1.054,-0.461 c -4.872,-2.132 -6.49,-5.068 -4.854,-8.807 0.278,-0.635 0.589,-1.254 0.935,-1.859 z"
   style="fill:#1b1b1b;fill-rule:nonzero" />
                                <g
   id="path8801"
   serif:id="path880"
   transform="translate(-37.2537,15.4967)">
                                    <path
   d="m -211.099,103.137 c 1.697,-1.084 3.076,-1.917 4.137,-2.499 1.011,1.538 1.94,3.296 2.787,5.275 -1.303,1.019 -2.688,1.797 -4.155,2.333 -0.401,-0.836 -1.324,-2.539 -2.769,-5.109 z"
   style="fill:#1b1b1b;fill-rule:nonzero"
   id="path492" />
                                </g>
                                <path
   id="path884"
   d="m -252.213,105.673 -2.133,4.244 -0.365,-0.183 c -2.519,-1.267 -4.093,-2.846 -4.719,-4.739 -0.451,-1.417 -0.481,-2.789 -0.091,-4.116 0.39,-1.326 1.29,-3.393 2.701,-6.2 2.599,-5.172 5.649,-11.958 9.151,-20.358 2.148,-0.804 3.703,-1.309 4.666,-1.517 l 0.166,0.249 c -2.079,5.018 -5.924,13.108 -11.533,24.269 l -0.95,1.89 c -0.888,1.768 -0.654,3.367 0.704,4.797 0.563,0.587 1.209,1.064 1.938,1.431 z"
   style="fill:#1b1b1b;fill-rule:nonzero" />
                                <path
   id="path886"
   d="m -272.589,86.733 0.024,-0.115 c -1.44,-1.754 -2.738,-3.14 -3.892,-4.155 -1.155,-1.016 -2.48,-1.96 -3.977,-2.831 -1.774,-1.033 -3.442,-1.289 -5.005,-0.768 l -0.928,3.067 -2.372,2.01 -0.409,-0.109 1.09,-6.149 c 1.149,-1.679 2.67,-2.668 4.562,-2.968 1.893,-0.301 3.812,0.115 5.757,1.248 2.437,1.419 5.401,4.39 8.893,8.913 1.281,1.634 2.91,3.04 4.885,4.219 l 2.841,1.611 -0.005,0.083 -3.81,2.118 c -1.067,-0.478 -2.705,-1.031 -4.916,-1.66 -2.21,-0.628 -3.836,-1.031 -4.878,-1.209 -4.451,-0.76 -8.282,-0.843 -11.49,-0.25 -3.186,0.606 -5.383,1.946 -6.591,4.019 -1.257,2.159 -1.636,4.458 -1.138,6.895 0.487,2.458 1.69,4.791 3.611,6.997 1.921,2.207 4.389,4.187 7.403,5.943 2.523,1.468 5.406,2.833 8.651,4.093 l -0.09,0.376 c -3.294,0.544 -5.776,0.802 -7.448,0.773 -2.234,-0.786 -4.366,-1.77 -6.397,-2.952 -2.159,-1.257 -4.002,-2.688 -5.529,-4.293 -1.527,-1.605 -2.702,-3.348 -3.524,-5.23 -0.814,-1.847 -1.135,-3.852 -0.964,-6.014 0.171,-2.161 0.886,-4.322 2.143,-6.481 2.166,-3.719 5.444,-6.204 9.836,-7.454 4.413,-1.237 8.969,-1.146 13.667,0.273 z"
   style="fill:#1b1b1b;fill-rule:nonzero" />
                            </g>
                        </g>
                    </g>
                    <g
   transform="matrix(1.85226,0,0,1.84988,-341.929,-47.7462)"
   id="g503">
                        
                    </g>
                </g>
            </g>
</svg>
